<?xml version="1.0" encoding="utf-8"?>
<svg viewBox="6.139 209.906 486.701 130.909" xmlns="http://www.w3.org/2000/svg">
  <g transform="matrix(0.591615, 0, 0, 0.593095, -55.795613, 54.41161)" style="">
    <g transform="matrix(1.216311 0 0 1.216311 0 21.97719)"/>
    <path transform="matrix(1.216311 0 0 1.216311 0 21.97719)" d="M185.47 202.79C 193.9767 206.31 200.5533 211.2233 205.2 217.53C 209.8346 223.7774 212.2935 231.3718 212.2 239.15L212.2 239.15L212.2 241.58L190.94 241.58L190.94 239.58C 191.0862 234.5802 189.3479 229.7081 186.07 225.93C 182.5756 222.0738 178.1259 219.2074 173.17 217.62C 167.574 215.7385 161.7037 214.8024 155.8 214.85C 146.2467 214.85 138.1167 216.6967 131.41 220.39C 124.7034 224.0833 121.0767 229.58 120.53 236.88L120.53 236.88L133.77 236.88L133.77 254.58L120.67 254.58L120.67 336.88L99.31 336.88L99.31 254.58L86.07 254.58L86.07 236.88L99.31 236.88C 99.62019 229.2721 102.3413 221.9599 107.08 216C 111.8133 210.0533 118.3467 205.48 126.68 202.28C 135.0133 199.08 144.72 197.48 155.8 197.48C 167.06 197.5067 176.95 199.2767 185.47 202.79z" stroke="none" fill="#231F20" fill-rule="nonzero"/>
    <g transform="matrix(1.216311 0 0 1.216311 0 21.97719)"/>
    <path transform="matrix(1.216311 0 0 1.216311 0 21.97719)" d="M247.69 254.55L234.45 254.55L234.45 336.85L213.1 336.85L213.1 291.45L195.67 291.45L195.67 297.8C 195.67 307.44 193.17 314.9833 188.17 320.43C 183.17 325.8767 175.94 328.6034 166.48 328.61C 161.1067 328.7164 155.7837 327.5586 150.94 325.23C 146.598 323.1331 142.9753 319.7958 140.53 315.64C 138.0327 311.2369 136.7716 306.2408 136.88 301.18C 136.88 292.3534 139.74 285.6167 145.46 280.97C 151.18 276.3234 158.4567 273.9901 167.29 273.97L167.29 273.97L175.94 273.97L175.94 254.55L129.18 254.55L129.18 236.85L247.69 236.85L247.69 254.55zM175.94 291.45L167.94 291.45C 164.9864 291.3017 162.0733 292.1856 159.7 293.95C 157.5954 295.6847 156.4409 298.3167 156.59 301.04C 156.4252 303.6737 157.3845 306.2538 159.23 308.14C 161.0836 309.842 163.5356 310.7408 166.05 310.64C 169.29 310.64 171.7467 309.58 173.42 307.46C 175.08 305.34 175.92 302.46 175.92 298.88zM213.1 254.55L195.67 254.55L195.67 274L213.1 274z" stroke="none" fill="#231F20" fill-rule="nonzero"/>
    <g transform="matrix(1.216311 0 0 1.216311 0 21.97719)"/>
    <path transform="matrix(1.216311 0 0 1.216311 0 21.97719)" d="M279.25 287.05C 275.6033 289.9833 273.7767 294.1967 273.77 299.69C 273.6053 304.0628 275.3282 308.2953 278.5 311.31C 281.66 314.2767 285.8067 315.7634 290.94 315.77C 296.0734 315.7767 297.67 311.6333 295.73 303.34L295.73 303.34L316.01 303.34C 316.1559 309.8735 314.5688 316.329 311.41 322.05C 308.39 327.3815 303.8692 331.7075 298.41 334.49C 292.3098 337.5265 285.5624 339.0332 278.75 338.88C 271.7699 339.0108 264.8538 337.5291 258.54 334.55C 252.8725 331.8736 248.0905 327.6295 244.76 322.32C 241.4172 316.8575 239.7066 310.5529 239.83 304.15C 239.7003 297.8449 241.2869 291.623 244.42 286.15C 247.5543 280.9043 252.1621 276.6964 257.67 274.05C 263.43 271.17 270.23 269.6833 278.07 269.59L278.07 269.59L278.07 254.55L243.1 254.55L243.1 236.85L335 236.85L335 254.55L311.61 254.55L311.61 282.66L293.1 282.66C 287.5067 282.66 282.89 284.1234 279.25 287.05zM281.25 341.85L302.33 341.85L320.4 372L298.64 372z" stroke="none" fill="#231F20" fill-rule="nonzero"/>
    <g transform="matrix(1.216311 0 0 1.216311 0 21.97719)"/>
    <path transform="matrix(1.216311 0 0 1.216311 0 21.97719)" d="M366.55 287.05C 362.8967 289.9833 361.07 294.1967 361.07 299.69C 360.9053 304.0628 362.6282 308.2953 365.8 311.31C 368.96 314.2767 373.1067 315.7634 378.24 315.77C 383.3734 315.7767 384.97 311.6333 383.03 303.34L383.03 303.34L403.3 303.34C 403.449 309.8726 401.8653 316.328 398.71 322.05C 395.69 327.3815 391.1692 331.7075 385.71 334.49C 379.6098 337.5265 372.8624 339.0332 366.05 338.88C 359.0699 339.0108 352.1538 337.5291 345.84 334.55C 340.1725 331.8736 335.3905 327.6295 332.06 322.32C 328.7172 316.8575 327.0065 310.5529 327.13 304.15C 327.0003 297.8449 328.5868 291.623 331.72 286.15C 334.8529 280.9069 339.4568 276.6995 344.96 274.05C 351.3359 271.0315 358.3161 269.5062 365.37 269.59L365.37 269.59L365.37 254.55L330.4 254.55L330.4 236.85L422.29 236.85L422.29 254.55L398.91 254.55L398.91 282.66L380.4 282.66C 374.8 282.66 370.1833 284.1234 366.55 287.05z" stroke="none" fill="#231F20" fill-rule="nonzero"/>
    <g transform="matrix(1.216311 0 0 1.216311 0 21.97719)"/>
    <path transform="matrix(1.216311 0 0 1.216311 0 21.97719)" d="M465.4 236.85L465.4 254.55L452.29 254.55L452.29 336.85L430.94 336.85L430.94 254.55L417.7 254.55L417.7 236.85L431.61 236.85L431.61 231.71C 431.61 220.81 427.8267 215.36 420.26 215.36L420.26 215.36L420.26 225.09L387.69 225.09L387.69 232.8C 387.69 221.9 390.28 213.2933 395.46 206.98C 400.64 200.6667 408.9067 197.5134 420.26 197.52C 431.5933 197.52 439.77 200.6967 444.79 207.05C 449.81 213.4034 452.31 221.9867 452.29 232.8L452.29 232.8L452.29 236.8L465.4 236.85z" stroke="none" fill="#231F20" fill-rule="nonzero"/>
    <g transform="matrix(1.216311 0 0 1.216311 0 21.97719)"/>
    <path transform="matrix(1.216311 0 0 1.216311 0 21.97719)" d="M539.59 254.55L539.59 274.55C 541.564 271.5643 544.2885 269.1503 547.4901 267.55C 551.0922 265.8165 555.0534 264.9598 559.05 265.05C 564.2175 264.9323 569.301 266.3713 573.6401 269.18C 577.7863 271.9209 581.0673 275.7845 583.1001 280.32C 585.3131 285.2474 586.4223 290.599 586.35 296C 586.4992 301.7249 585.2678 307.4015 582.7599 312.55C 580.5839 316.9763 577.1552 320.6658 572.9 323.16C 568.5178 325.646 563.5473 326.9068 558.5099 326.81C 555.4139 326.8281 552.3273 326.4654 549.3199 325.73L549.3199 325.73L549.3199 309.15C 550.4673 309.437 551.6475 309.5714 552.83 309.55C 556.0806 309.6593 559.2247 308.3835 561.48 306.04C 563.7333 303.7 564.86 300.5466 564.86 296.58C 564.9882 293.0583 563.7523 289.623 561.41 286.99C 559.0767 284.4449 555.7399 283.0582 552.29 283.2C 548.15 283.2 544.9966 284.5966 542.83 287.39C 540.5906 290.4366 539.4486 294.1516 539.59 297.93L539.59 297.93L539.59 336.85L519.18 336.85L519.18 318.2C 517.0861 321.3757 514.1689 323.9231 510.74 325.57C 506.785 327.4072 502.4595 328.3072 498.1 328.2C 492.908 328.3066 487.7949 326.9182 483.37 324.2C 479.0973 321.503 475.7133 317.6077 473.64 313C 471.3168 307.8427 470.1626 302.2355 470.26 296.58C 470.26 287.12 472.8267 279.5067 477.96 273.74C 483.0934 267.9733 490.0934 265.09 498.96 265.09C 503.1257 264.9808 507.2622 265.8149 511.06 267.53C 514.3392 269.0723 517.1564 271.4481 519.23 274.42L519.23 274.42L519.23 254.55L460.8 254.55L460.8 236.85L595.8 236.85L595.8 254.55L539.59 254.55zM515.47 306.24C 517.895 303.6119 519.2225 300.1556 519.1801 296.58C 519.2455 293.0501 517.9367 289.633 515.53 287.05C 513.1034 284.3833 509.77 283.05 505.53 283.05C 501.869 282.9339 498.3153 284.2963 495.67 286.83C 493.0452 289.3724 491.6208 292.9081 491.75 296.56C 491.5815 300.2713 492.9486 303.8882 495.53 306.56C 498.1599 309.1241 501.7301 310.4915 505.4 310.34C 509.1973 310.5265 512.8829 309.0258 515.47 306.24z" stroke="none" fill="#231F20" fill-rule="nonzero"/>
    <g transform="matrix(1.216311 0 0 1.216311 0 21.97719)"/>
    <path transform="matrix(1.216311 0 0 1.216311 0 21.97719)" d="M693.1 254.55L693.1 268.88C 698.2389 271.2169 702.5161 275.1059 705.33 280C 708.3501 285.0467 709.8601 291.2634 709.86 298.65C 709.9828 304.7929 708.592 310.8717 705.8101 316.35C 703.1012 321.4861 698.9235 325.6986 693.8101 328.45C 688.5434 331.37 682.2101 332.8334 674.8101 332.84C 673.0101 332.84 671.48 332.79 670.22 332.7L670.22 332.7L670.22 314.15L673.8701 314.42C 677.7973 314.5768 681.6053 313.0529 684.34 310.23C 687.0067 307.4366 688.3401 303.6533 688.34 298.88C 688.3401 294.1066 685.3401 292.8 679.34 294.96C 675.2001 294.96 672.1367 296.4467 670.15 299.42C 668.1634 302.3933 667.1634 306.22 667.15 310.9L667.15 310.9L667.15 314.15L646.48 314.15L646.48 310.9C 646.6256 306.8842 645.582 302.9148 643.48 299.49C 641.48 296.47 638.5067 294.96 634.56 294.96C 630.6133 294.96 627.55 296.2433 625.37 298.81C 623.21 301.3766 622.13 304.8233 622.13 309.15C 624.8671 311.9755 628.6793 313.4997 632.61 313.34L632.61 313.34L636.26 313.07L636.26 331.58C 634.99 331.67 633.46 331.72 631.66 331.72C 624.2734 331.72 617.9401 330.2567 612.66 327.33C 607.5466 324.5786 603.3689 320.366 600.66 315.23C 597.8781 309.7517 596.4872 303.6729 596.61 297.53C 596.6101 290.41 598.0067 284.41 600.8 279.53C 604.6052 274.6223 609.9647 271.1527 616 269.69C 620.7794 267.2095 626.0955 265.9423 631.48 266C 637.52 266 642.4534 267.42 646.28 270.26C 650.1376 273.1363 653.1497 276.9981 655 281.44L655 281.44L655.4 281.44C 658.9067 273.52 664.5367 268.6567 672.29 266.85L672.29 266.85L672.29 254.55L591.21 254.55L591.21 236.85L719.32 236.85L719.32 254.55L693.1 254.55z" stroke="none" fill="#231F20" fill-rule="nonzero"/>
    <g transform="matrix(1.216311 0 0 1.216311 0 21.97719)"/>
    <path transform="matrix(1.216311 0 0 1.216311 0 21.97719)" d="M728 254.55L714.72 254.55L714.72 236.85L762.43 236.85L762.43 254.55L749.32 254.55L749.32 336.85L728 336.85L728 254.55z" stroke="none" fill="#231F20" fill-rule="nonzero"/>
    <g transform="matrix(1.216311 0 0 1.216311 0 21.97719)"/>
    <path transform="matrix(1.216311 0 0 1.216311 0 21.97719)" d="M355 370.91L359 370.91L359 371.45C 359.1116 373.4902 358.3263 375.4774 356.85 376.89C 355.2308 378.2861 353.1349 379.0026 351 378.89C 348.6719 379.0305 346.3836 378.239 344.64 376.69C 343.0962 375.1209 342.2771 372.9788 342.38 370.78L342.38 370.78L342.38 364.35L348 364.35C 349.8284 364.4236 351.6417 363.9911 353.24 363.1C 354.6243 362.2218 355.3956 360.6386 355.2339 359.0073C 355.0723 357.3759 354.0052 355.9749 352.4755 355.3854C 350.9458 354.7961 349.2145 355.1189 348 356.22C 347.2163 357.0398 346.8072 358.1476 346.87 359.28C 346.87 359.59 346.87 360.07 346.94 360.74L346.94 360.74L342.89 360.74C 342.8002 360.221 342.7468 359.6964 342.73 359.17C 342.6971 357.8216 343.0436 356.4911 343.73 355.33C 344.4215 354.2056 345.4306 353.3113 346.63 352.76C 348.0186 352.1247 349.5334 351.8135 351.06 351.85C 353.2592 351.734 355.4219 352.4477 357.12 353.85C 358.6873 355.3014 359.5237 357.3775 359.4 359.51C 359.5264 361.8305 358.4828 364.0603 356.62 365.45C 354.5061 366.8976 351.9797 367.6204 349.42 367.51L349.42 367.51L346.5 367.51L346.5 371C 346.4417 372.206 346.8217 373.3923 347.57 374.34C 348.4186 375.2375 349.6289 375.701 350.86 375.6C 351.9953 375.6645 353.1044 375.2426 353.91 374.44C 354.6447 373.6169 355.035 372.5428 355 371.44L355 371.44L355 370.91z" stroke="none" fill="#231F20" fill-rule="nonzero"/>
    <g transform="matrix(1.216311 0 0 1.216311 0 21.97719)"/>
    <path transform="matrix(1.216311 0 0 1.216311 0 21.97719)" d="M387.42 352.16L387.42 355.3L382.66 355.3L382.66 378.59L378.66 378.59L378.66 372.13C 377.9631 373.1867 377.0011 374.0418 375.87 374.61C 374.552 375.2443 373.1022 375.5562 371.64 375.5201C 370.0221 375.5536 368.4211 375.186 366.98 374.45C 365.6806 373.7677 364.6046 372.7264 363.88 371.45C 363.1353 370.0942 362.7594 368.5667 362.79 367.0201C 362.7634 365.5221 363.1473 364.0455 363.9 362.7501C 364.6409 361.4971 365.723 360.4809 367.02 359.8201C 368.4513 359.0986 370.0374 358.7382 371.64 358.7701C 373.0932 358.7372 374.5343 359.0419 375.8499 359.6601C 376.9921 360.2104 377.9633 361.0607 378.6599 362.1201L378.6599 362.1201L378.6599 355.3L359.34 355.3L359.34 352.16L387.42 352.16zM376 371.73C 377.6472 370.8176 378.6696 369.0831 378.67 367.2C 378.6697 366.2951 378.4428 365.4048 378.01 364.61C 377.5457 363.7678 376.8522 363.0743 376.01 362.61C 374.9958 362.0705 373.8583 361.8051 372.71 361.84C 371.1724 361.787 369.6706 362.3115 368.5 363.31C 367.3845 364.2717 366.7664 365.6882 366.82 367.16C 366.7587 368.6522 367.3675 370.0937 368.48 371.09C 369.6557 372.0933 371.1655 372.618 372.7101 372.56C 373.8614 372.5844 374.998 372.2976 376 371.73z" stroke="none" fill="#231F20" fill-rule="nonzero"/>
    <g transform="matrix(1.216311 0 0 1.216311 0 21.97719)"/>
    <path transform="matrix(1.216311 0 0 1.216311 0 21.97719)" d="M410.93 355.3L385.54 355.3L385.54 352.16L410.93 352.16L410.93 355.3zM409.76 370.71C 408.9482 372.1381 407.7346 373.2961 406.27 374.04C 404.6059 374.8643 402.7666 375.2727 400.91 375.23C 398.6134 375.3266 396.3473 374.6776 394.45 373.38C 391.954 371.394 391.2197 367.9154 392.7 365.09C 393.2243 364.1686 393.9834 363.4026 394.9 362.87L394.9 362.87L388.43 362.87L388.43 359.87L402.66 359.87L402.66 362.87L401.22 362.87C 399.7964 362.8076 398.4001 363.2742 397.3 364.18C 396.3144 365.0174 395.7625 366.2572 395.8 367.55C 395.7567 368.8474 396.3458 370.0853 397.38 370.87C 398.5117 371.7072 399.8932 372.1371 401.3 372.09C 402.9437 372.1236 404.5292 371.4813 405.686 370.3131C 406.8429 369.145 407.4697 367.5533 407.42 365.91L407.42 365.91L410.93 365.91C 410.9881 367.5871 410.5833 369.2477 409.76 370.71z" stroke="none" fill="#231F20" fill-rule="nonzero"/>
    <g transform="matrix(1.216311 0 0 1.216311 0 21.97719)"/>
    <path transform="matrix(1.216311 0 0 1.216311 0 21.97719)" d="M428.75 355.3L428.75 359.23C 430.3308 359.5362 431.7497 360.3982 432.75 361.66C 433.7977 363.0688 434.3275 364.796 434.25 366.55C 434.3022 368.6609 433.6747 370.7328 432.46 372.46C 431.1653 374.2179 429.3911 375.565 427.35 376.34C 424.8891 377.2893 422.2672 377.7513 419.63 377.7C 416.3958 377.8554 413.177 377.1661 410.29 375.7C 408.101 374.5859 406.7443 372.3156 406.8 369.86C 406.7497 368.4527 407.2522 367.0815 408.2 366.04C 409.181 365.0018 410.4659 364.3016 411.87 364.04L411.87 364.04L411.87 364C 409.2562 363.7064 407.363 361.3676 407.62 358.75L407.62 358.75L407.62 355.35L403.13 355.35L403.13 352.21L436.94 352.21L436.94 355.35L428.75 355.3zM424.97 355.3L411.67 355.3L411.67 358.55C 411.5928 359.6324 411.9907 360.6947 412.76 361.46C 413.7582 362.2086 414.9966 362.5645 416.24 362.46L416.24 362.46L417.05 362.46L417.05 365.46L416.31 365.46C 414.886 365.361 413.4718 365.7605 412.31 366.59C 411.4377 367.2842 410.9386 368.3453 410.96 369.46C 410.9326 371.0377 411.8217 372.4884 413.24 373.18C 417.9224 375.1507 423.2549 374.8329 427.67 372.32C 429.6173 370.9856 430.7486 368.7494 430.67 366.39C 430.7414 365.1696 430.3444 363.9678 429.56 363.03C 428.886 362.255 427.9071 361.813 426.88 361.82C 425.9419 361.8006 425.0311 362.1363 424.33 362.76C 423.5747 363.4919 423.1829 364.5211 423.26 365.57C 423.2804 366.645 423.4903 367.708 423.88 368.7101L423.88 368.7101L420.49 368.7101C 420.0408 367.5877 419.8133 366.389 419.82 365.1801C 419.739 363.6906 420.2534 362.23 421.25 361.1201C 422.2668 360.0976 423.5847 359.4281 425.01 359.2101z" stroke="none" fill="#231F20" fill-rule="nonzero"/>
    <g transform="matrix(1.216311 0 0 1.216311 0 21.97719)"/>
    <path transform="matrix(1.216311 0 0 1.216311 0 21.97719)" d="M477.74 352.16L477.74 355.3L472.94 355.3L472.94 378.59L468.85 378.59L468.85 365.34L462.92 365.34L462.92 367.8C 463.0494 369.8584 462.3551 371.8839 460.99 373.43C 459.5065 374.8324 457.5076 375.5566 455.47 375.43C 453.4684 375.5262 451.502 374.8778 449.95 373.61C 448.5653 372.4112 447.797 370.6504 447.86 368.82C 447.7672 366.9447 448.6007 365.1432 450.0901 364C 451.7406 362.8066 453.7451 362.2042 455.7801 362.29L455.7801 362.29L459.1001 362.29L459.1001 359.11C 459.1644 358.0526 458.8913 357.0021 458.3201 356.11C 457.7538 355.38 456.8619 354.979 455.9401 355.04C 455.0846 355.0076 454.2545 355.3338 453.6501 355.94C 453.0457 356.5964 452.732 357.469 452.7801 358.36C 452.7771 358.7945 452.8275 359.2278 452.9301 359.65L452.9301 359.65L448.8401 359.65C 448.7426 359.1793 448.689 358.7006 448.6801 358.22C 448.6061 356.4762 449.2876 354.7852 450.55 353.58C 452.0001 352.3399 453.8756 351.7124 455.7801 351.83C 458.2801 351.83 460.0934 352.5333 461.2201 353.94C 462.4339 355.6141 463.0343 357.6552 462.9201 359.72L462.9201 359.72L462.9201 362.26L468.8501 362.26L468.8501 352.16L477.74 352.16zM459.1 365.34L455.9 365.34C 454.8026 365.2827 453.7199 365.6118 452.84 366.27C 452.0751 366.8816 451.6478 367.8215 451.69 368.8C 451.6479 369.7485 452.0333 370.666 452.74 371.3C 453.488 371.9369 454.4483 372.269 455.43 372.23C 456.4572 372.2913 457.4558 371.8786 458.14 371.11C 458.8415 370.2222 459.1968 369.11 459.14 367.98z" stroke="none" fill="#231F20" fill-rule="nonzero"/>
    <g transform="matrix(1.216311 0 0 1.216311 0 21.97719)"/>
    <path transform="matrix(1.216311 0 0 1.216311 0 21.97719)" d="M480.62 355.3L475.86 355.3L475.86 352.16L489.48 352.16L489.48 355.3L484.72 355.3L484.72 378.59L480.62 378.59L480.62 355.3z" stroke="none" fill="#231F20" fill-rule="nonzero"/>
    <g transform="matrix(1.216311 0 0 1.216311 0 21.97719)"/>
    <path transform="matrix(1.216311 0 0 1.216311 0 21.97719)" d="M495.56 366.91L495.56 371.38C 495.5115 372.512 495.8658 373.6246 496.56 374.52C 497.2903 375.3373 498.3564 375.7726 499.45 375.7C 500.4923 375.7475 501.506 375.3515 502.24 374.61C 502.9423 373.8088 503.3014 372.7637 503.24 371.7L503.24 371.7L503.24 370.91L507.18 370.91L507.18 371.59C 507.2794 373.5793 506.5351 375.5182 505.13 376.93C 503.5961 378.3223 501.5686 379.0426 499.5 378.93C 497.3207 379.0775 495.1787 378.3091 493.59 376.81C 492.2078 375.286 491.4883 373.275 491.59 371.22L491.59 371.22L491.59 363.86L495.65 363.86C 499.89 363.86 502.01 362.0034 502.01 358.29L502.01 358.29L502.01 355.29L487.6 355.29L487.6 352.15L510.3 352.15L510.3 355.29L506 355.29L506 358.29C 506.1496 360.6248 505.3654 362.9235 503.82 364.68C 502.36 366.1801 500.0967 366.9301 497.03 366.93L497.03 366.93L495.56 366.91z" stroke="none" fill="#231F20" fill-rule="nonzero"/>
    <g transform="matrix(1.216311 0 0 1.216311 0 21.97719)"/>
    <path transform="matrix(1.216311 0 0 1.216311 0 21.97719)" d="M537.52 355.3L532.76 355.3L532.76 378.59L528.67 378.59L528.67 364.09L523.21 364.09C 521.3406 363.9851 519.4888 364.4982 517.9399 365.55C 516.6375 366.5644 515.9131 368.1514 516 369.8C 515.9143 371.3947 516.5363 372.9461 517.7 374.04C 519.0856 375.1337 520.829 375.6721 522.59 375.55L522.59 375.55L523.41 375.55L523.41 378.55L522 378.55C 519.3593 378.6823 516.7545 377.8941 514.63 376.32C 512.7216 374.6941 511.6945 372.2616 511.86 369.76C 511.6796 367.183 512.8069 364.6879 514.86 363.12C 517.2471 361.5359 520.0787 360.7579 522.94 360.9L522.94 360.9L528.59 360.9L528.59 355.3L508.43 355.3L508.43 352.16L537.52 352.16L537.52 355.3z" stroke="none" fill="#231F20" fill-rule="nonzero"/>
    <g transform="matrix(1.216311 0 0 1.216311 0 21.97719)"/>
    <path transform="matrix(1.216311 0 0 1.216311 0 21.97719)" d="M551.91 374.09L551.91 378.59L546.91 378.59L546.91 374.09L551.91 374.09z" stroke="none" fill="#231F20" fill-rule="nonzero"/>
    <g transform="matrix(1.216311 0 0 1.216311 0 21.97719)"/>
    <path transform="matrix(1.216311 0 0 1.216311 0 21.97719)" d="M578.12 370.91L582.12 370.91L582.12 371.45C 582.2316 373.4902 581.4462 375.4774 579.97 376.89C 578.3508 378.286 576.2549 379.0026 574.12 378.89C 571.7947 379.0323 569.5089 378.2403 567.77 376.69C 566.2194 375.1246 565.396 372.9809 565.5 370.78L565.5 370.78L565.5 364.35L571.12 364.35C 572.9515 364.4223 574.7676 363.9899 576.37 363.1C 577.6943 362.2969 578.4645 360.826 578.37 359.28C 578.4328 358.1476 578.0237 357.0398 577.24 356.22C 576.0375 354.9257 574.155 354.5197 572.526 355.2034C 570.897 355.8872 569.8683 357.5153 569.95 359.28C 569.95 359.59 569.95 360.07 570.03 360.74L570.03 360.74L566 360.74C 565.9174 360.2203 565.8672 359.6959 565.85 359.17C 565.8171 357.8216 566.1636 356.4911 566.85 355.33C 567.5438 354.2075 568.5523 353.3138 569.75 352.76C 571.1389 352.1257 572.6535 351.8146 574.18 351.85C 576.382 351.7354 578.5473 352.4488 580.25 353.85C 581.8173 355.3014 582.6537 357.3775 582.53 359.51C 582.6577 361.8331 581.6094 364.0649 579.7401 365.45C 577.6261 366.8976 575.0997 367.6204 572.54 367.51L572.54 367.51L569.6201 367.51L569.6201 371C 569.5617 372.206 569.9418 373.3923 570.6901 374.34C 571.5435 375.2366 572.7563 375.6997 573.9901 375.6C 575.1083 375.6501 576.1964 375.2294 576.9901 374.44C 577.7294 373.6196 578.1203 372.5436 578.0801 371.44L578.0801 371.44L578.12 370.91z" stroke="none" fill="#231F20" fill-rule="nonzero"/>
    <g transform="matrix(1.216311 0 0 1.216311 0 21.97719)"/>
    <path transform="matrix(1.216311 0 0 1.216311 0 21.97719)" d="M610.53 352.16L610.53 355.3L605.77 355.3L605.77 378.59L601.77 378.59L601.77 372.13C 601.0782 373.1911 600.1148 374.0475 598.98 374.61C 597.662 375.2443 596.2122 375.5562 594.7501 375.5201C 593.1321 375.5536 591.5312 375.186 590.0901 374.45C 588.7907 373.7677 587.7147 372.7264 586.9901 371.45C 586.2454 370.0942 585.8696 368.5667 585.9001 367.0201C 585.8736 365.5221 586.2574 364.0455 587.0101 362.7501C 587.751 361.4971 588.8331 360.4809 590.1301 359.8201C 591.5615 359.0986 593.1475 358.7382 594.7501 358.7701C 596.2034 358.7372 597.6445 359.0419 598.9601 359.6601C 600.1022 360.2104 601.0735 361.0607 601.7701 362.1201L601.7701 362.1201L601.7701 355.3L582.45 355.3L582.45 352.16L610.53 352.16zM599.1201 371.73C 599.9603 371.2631 600.6531 370.5703 601.1201 369.73C 601.5511 368.9563 601.7783 368.0857 601.78 367.2C 601.7797 366.2951 601.5528 365.4048 601.1201 364.61C 600.6598 363.7648 599.9653 363.0703 599.1201 362.61C 598.1095 362.0705 596.9752 361.805 595.8301 361.84C 594.2893 361.7865 592.7842 362.3108 591.6101 363.31C 590.502 364.2763 589.8884 365.6907 589.9401 367.16C 589.8763 368.6506 590.4814 370.0918 591.5901 371.09C 592.7684 372.0957 594.2822 372.6206 595.8301 372.56C 596.9818 372.5864 598.1188 372.2995 599.12 371.73z" stroke="none" fill="#231F20" fill-rule="nonzero"/>
    <g transform="matrix(1.216311 0 0 1.216311 0 21.97719)"/>
    <path transform="matrix(1.216311 0 0 1.216311 0 21.97719)" d="M625.46 370.91L629.46 370.91L629.46 371.45C 629.5743 373.4887 628.7927 375.4756 627.32 376.89C 625.7008 378.286 623.6049 379.0026 621.47 378.89C 619.142 379.0305 616.8537 378.239 615.11 376.69C 613.5631 375.1229 612.7434 372.9794 612.85 370.78L612.85 370.78L612.85 364.35L618.47 364.35C 620.2985 364.4236 622.1118 363.9911 623.71 363.1C 625.0943 362.2218 625.8657 360.6386 625.704 359.0073C 625.5423 357.3759 624.4752 355.9749 622.9455 355.3854C 621.4158 354.7961 619.6845 355.1189 618.47 356.22C 617.6827 357.0381 617.2699 358.1461 617.33 359.28C 617.33 359.59 617.33 360.07 617.41 360.74L617.41 360.74L613.41 360.74C 613.3203 360.221 613.2668 359.6964 613.2501 359.17C 613.2219 357.8222 613.5681 356.4929 614.2501 355.33C 614.9479 354.2072 615.9597 353.3137 617.16 352.76C 618.5485 352.1247 620.0634 351.8135 621.59 351.85C 623.7892 351.734 625.9518 352.4477 627.65 353.85C 629.2173 355.3014 630.0537 357.3775 629.9301 359.51C 630.0577 361.8331 629.0095 364.0649 627.1401 365.45C 625.0302 366.8981 622.5067 367.6211 619.9501 367.51L619.9501 367.51L617 367.51L617 371C 616.9445 372.2073 617.3282 373.3938 618.08 374.34C 618.9286 375.2375 620.1389 375.701 621.37 375.6C 622.4882 375.6501 623.5764 375.2294 624.37 374.44C 625.1094 373.6196 625.5003 372.5436 625.46 371.44L625.46 371.44L625.46 370.91z" stroke="none" fill="#231F20" fill-rule="nonzero"/>
    <g transform="matrix(1.216311 0 0 1.216311 0 21.97719)"/>
    <path transform="matrix(1.216311 0 0 1.216311 0 21.97719)" d="M661.85 352.16L661.85 355.3L657.09 355.3L657.09 378.59L653 378.59L653 370.84C 652.2837 372.1711 651.1824 373.255 649.84 373.95C 648.1218 374.8516 646.1994 375.2926 644.26 375.23C 642.2972 375.2753 640.3502 374.8682 638.57 374.04C 637.015 373.2906 635.7169 372.097 634.84 370.61C 633.9444 369.0117 633.4954 367.2017 633.54 365.37C 633.5373 364.6772 633.5875 363.9852 633.6901 363.3L633.6901 363.3L637.4001 363.3C 642.6001 363.3 645.2001 361.7167 645.2001 358.55C 645.2274 357.6142 644.8653 356.7089 644.2001 356.05C 643.485 355.3645 642.5197 355.0029 641.5301 355.05C 640.5049 355.0043 639.5029 355.3635 638.7401 356.05C 638.0452 356.7591 637.6819 357.7288 637.7401 358.72C 637.7528 359.2103 637.8063 359.6986 637.9001 360.18L637.9001 360.18L634.1901 360.18C 634.1035 359.6608 634.0534 359.1362 634.04 358.61C 634.0126 357.3285 634.3602 356.0668 635.04 354.98C 635.7005 353.9613 636.6417 353.1556 637.7501 352.66C 638.9702 352.1154 640.2941 351.8424 641.6301 351.86C 642.9805 351.8274 644.3186 352.1225 645.5301 352.72C 646.6143 353.2549 647.5206 354.0918 648.1401 355.13C 648.7789 356.2023 649.1046 357.4321 649.0801 358.68C 649.1876 360.8474 648.1614 362.915 646.3701 364.14C 644.1607 365.5182 641.5801 366.1817 638.98 366.04L638.98 366.04L637.54 366.04C 637.5245 367.7222 638.2352 369.3295 639.4901 370.45C 641.0283 371.6565 642.96 372.2481 644.91 372.11C 646.329 372.1313 647.7343 371.8304 649.02 371.23C 650.2276 370.6711 651.2509 369.7796 651.97 368.66C 652.7144 367.4609 653.0933 366.0709 653.0601 364.66L653.0601 364.66L653.0601 352.16L661.85 352.16z" stroke="none" fill="#231F20" fill-rule="nonzero"/>
    <g transform="matrix(1.216311 0 0 1.216311 0 21.97719)"/>
    <path transform="matrix(1.216311 0 0 1.216311 0 21.97719)" d="M702.64 352.16L702.64 355.3L697.85 355.3L697.85 378.59L693.7501 378.59L693.7501 365.34L687.8201 365.34L687.8201 367.8C 687.9551 369.8592 687.2601 371.8867 685.8901 373.43C 684.4115 374.834 682.4149 375.5587 680.3801 375.43C 678.3784 375.5262 676.412 374.8778 674.86 373.61C 673.4753 372.4112 672.7071 370.6505 672.77 368.82C 672.6807 366.9454 673.5134 365.1455 675 364C 676.6543 362.8066 678.6619 362.2043 680.7 362.29L680.7 362.29L684 362.29L684 359.11C 684.0643 358.0526 683.7912 357.0021 683.22 356.11C 682.6559 355.3772 681.7625 354.9754 680.84 355.04C 679.9878 355.0092 679.1614 355.3354 678.5599 355.94C 677.952 356.5948 677.6346 357.4677 677.6799 358.36C 677.6801 358.7949 677.7338 359.2282 677.8399 359.65L677.8399 359.65L673.7499 359.65C 673.6524 359.1794 673.5988 358.7006 673.5899 358.22C 673.508 356.4749 674.1908 354.7807 675.4599 353.58C 676.91 352.34 678.7855 351.7124 680.6899 351.83C 683.1799 351.83 684.9999 352.53 686.1299 353.94C 687.3401 355.6154 687.9369 357.6564 687.8199 359.72L687.8199 359.72L687.8199 362.26L693.7499 362.26L693.7499 352.16L702.64 352.16zM684 365.34L680.8 365.34C 679.703 365.2853 678.6211 365.6141 677.74 366.27C 676.9776 366.8836 676.551 367.8221 676.59 368.8C 676.5461 369.7509 676.936 370.6704 677.65 371.3C 678.397 371.9387 679.358 372.2709 680.34 372.23C 681.3671 372.2913 682.3658 371.8786 683.05 371.11C 683.7474 370.2201 684.1023 369.1094 684.05 367.98z" stroke="none" fill="#231F20" fill-rule="nonzero"/>
    <g transform="matrix(1.216311 0 0 1.216311 0 21.97719)"/>
    <path transform="matrix(1.216311 0 0 1.216311 0 21.97719)" d="M705.53 355.3L700.77 355.3L700.77 352.16L714.38 352.16L714.38 355.3L709.62 355.3L709.62 378.59L705.53 378.59L705.53 355.3z" stroke="none" fill="#231F20" fill-rule="nonzero"/>
    <g transform="matrix(1.216311 0 0 1.216311 0 21.97719)"/>
    <path transform="matrix(1.216311 0 0 1.216311 0 21.97719)" d="M720.47 366.91L720.47 371.38C 720.4214 372.512 720.7758 373.6246 721.47 374.52C 722.1994 375.3385 723.2661 375.774 724.36 375.7C 725.4023 375.7475 726.4159 375.3515 727.15 374.61C 727.8484 373.8066 728.207 372.7631 728.15 371.7L728.15 371.7L728.15 370.91L732.09 370.91L732.09 371.59C 732.1893 373.5793 731.4449 375.5182 730.04 376.93C 728.506 378.3223 726.4785 379.0426 724.41 378.93C 722.2307 379.0775 720.0886 378.3091 718.5 376.81C 717.1129 375.2889 716.3926 373.2758 716.5 371.22L716.5 371.22L716.5 363.86L720.56 363.86C 724.7933 363.86 726.91 362.0034 726.91 358.29L726.91 358.29L726.91 355.29L712.51 355.29L712.51 352.15L735.21 352.15L735.21 355.29L730.92 355.29L730.92 358.29C 731.0714 360.6268 730.283 362.9273 728.73 364.68C 727.2767 366.1801 725.0167 366.9301 721.95 366.93L721.95 366.93L720.47 366.91z" stroke="none" fill="#231F20" fill-rule="nonzero"/>
    <g transform="matrix(1.216311 0 0 1.216311 0 21.97719)"/>
    <path transform="matrix(1.216311 0 0 1.216311 0 21.97719)" d="M762.43 355.3L757.67 355.3L757.67 378.59L753.58 378.59L753.58 364.09L748.1199 364.09C 746.2506 363.9851 744.3987 364.4982 742.8499 365.55C 741.5587 366.5707 740.8459 368.1567 740.9399 369.8C 740.8542 371.3947 741.4763 372.9461 742.64 374.04C 744.0256 375.1337 745.7689 375.6721 747.53 375.55L747.53 375.55L748.35 375.55L748.35 378.55L747 378.55C 744.3593 378.6823 741.7545 377.8941 739.63 376.32C 737.7216 374.6941 736.6945 372.2616 736.86 369.76C 736.6796 367.183 737.8069 364.6879 739.86 363.12C 742.244 361.5373 745.072 360.7593 747.93 360.9L747.93 360.9L753.59 360.9L753.59 355.3L733.34 355.3L733.34 352.16L762.4301 352.16L762.43 355.3z" stroke="none" fill="#231F20" fill-rule="nonzero"/>
  </g>
</svg>