<?xml version="1.0" encoding="utf-8"?>
<!-- Generator: Adobe Illustrator 16.0.0, SVG Export Plug-In . SVG Version: 6.00 Build 0)  -->
<!DOCTYPE svg PUBLIC "-//W3C//DTD SVG 1.1 Tiny//EN" "http://www.w3.org/Graphics/SVG/1.1/DTD/svg11-tiny.dtd">
<svg version="1.1" baseProfile="tiny" id="Layer_1" xmlns="http://www.w3.org/2000/svg" xmlns:xlink="http://www.w3.org/1999/xlink"
	 x="0px" y="0px" width="1792px" height="1792px" viewBox="0 0 1792 1792" xml:space="preserve">
<path fill="#333333" d="M1427,301L896,832l531,531c12.7,12.7,19,27.7,19,45s-6.3,32.3-19,45l-166,166c-12.7,12.7-27.7,19-45,19
	s-32.3-6.3-45-19L429,877c-12.7-12.7-19-27.7-19-45s6.3-32.3,19-45l742-742c12.7-12.7,27.7-19,45-19s32.3,6.3,45,19l166,166
	c12.7,12.7,19,27.7,19,45S1439.7,288.3,1427,301z"/>
</svg>
