<?xml version="1.0" encoding="utf-8"?>
<!-- Generator: Adobe Illustrator 18.0.0, SVG Export Plug-In . SVG Version: 6.00 Build 0)  -->
<!DOCTYPE svg PUBLIC "-//W3C//DTD SVG 1.1//EN" "http://www.w3.org/Graphics/SVG/1.1/DTD/svg11.dtd">
<svg version="1.1" id="Layer_1" xmlns="http://www.w3.org/2000/svg" xmlns:xlink="http://www.w3.org/1999/xlink" x="0px" y="0px"
	 viewBox="0 0 500 500" enable-background="new 0 0 500 500" xml:space="preserve">
<path fill="#3F3F3F" d="M114.7,497.8H10.8V166.7h103.9V497.8z M62.8,121.2c-32.5,0-60.6-26-60.6-60.6C2.2,28.1,28.1,0,62.8,0
	c32.5,0,60.6,26,60.6,60.6C123.4,95.2,95.2,121.2,62.8,121.2z M500,497.8H398.3V337.7c0-39,0-86.6-54.1-86.6s-60.6,41.1-60.6,84.4
	V500H181.8V166.7h95.2v45.5h2.2c13-26,47.6-54.1,97.4-54.1C480.5,158,500,227.3,500,316V497.8z"/>
</svg>
