<?xml version="1.0" encoding="utf-8"?>
<!-- Generator: Adobe Illustrator 19.2.1, SVG Export Plug-In . SVG Version: 6.00 Build 0)  -->
<svg version="1.1" id="Layer_1" xmlns="http://www.w3.org/2000/svg" xmlns:xlink="http://www.w3.org/1999/xlink" x="0px" y="0px"
	 viewBox="0 0 258 167" style="enable-background:new 0 0 258 167;" xml:space="preserve">
<style type="text/css">
	.st0{fill:#FFFFFF;}
	.st1{fill:#C57B6C;stroke:#C57B6C;}
</style>
<g>
	<path id="map" class="st0" d="M182.7,12.6c-0.2-0.1-0.4-0.2-0.6-0.2c-0.2,0-0.4,0-0.6,0.1c-0.1,0-0.3,0-0.4,0H181l2.3,0.7
		C183.1,13,182.9,12.8,182.7,12.6z M256.7,77.8c0.1-0.2,0.2-0.5,0.3-0.7c0.1-0.3,0.2-0.5,0.4-0.7c0.1-0.1,0.3-0.2,0.4-0.4
		c0.1-0.1,0.1-0.2,0.2-0.3c0-0.1,0.1-0.2,0.1-0.2l0,0l0,0c0,0-0.1-0.5-0.1-0.7c0-0.2-0.1-0.4-0.1-0.7c-0.1-0.2-0.3-0.5-0.5-0.7
		c-0.2-0.2-0.4-0.3-0.6-0.4c-0.3-0.1-0.8,0.1-1.1-0.1c-0.3-0.1-0.5-0.7-0.9-0.8c-0.2-0.1-0.4,0-0.5-0.1l0-1.1l-1.5-1.6l-0.5-0.2
		l-1.1,0.3l-1.1,0.5l-0.2,1.2l-0.5,1.2l-0.6,0.9l-0.5,0.1l0.2,0.7l-0.1,0.9l-0.8,0.5H246l-0.8-0.2l-0.6-0.4l-0.5,0.5l-0.2,1
		l-0.4,0.8l-0.1,2.7l-1.8-0.1l-1,0.5l-1.1,1l-1.3,0.5l-2.9-0.2v0l-0.6-1.1l-1.1,0.1l-0.6-0.7l-0.8-1.5l-1.5-0.9l-1-0.2l-1.1-1.2
		l-1.9,0.2l-0.9-0.5l-1.5-1l-1.1-0.5l-0.4-0.4l0.1-0.5l-0.1-1.2l-0.2-0.6l0.5-1.6l0.5-0.6l-0.2-0.8l-0.4-0.7l-0.2-0.8l-1.6,0.8
		l-0.9-0.2l-1-0.5l-0.9-0.9l-1.4-0.7l-1.4-0.2l-1.8-0.3l-1.5-0.8l-2.1-0.5l-0.9,0.3l-1-0.1l-1-0.2l-0.4,0.2l-0.3,0.3l-1,0.3
		l-0.7-0.1l-0.2-0.5l-0.7-0.5l-1,0l-0.3,0.5l-0.3,0.3l-0.9,0l-0.7-0.3c-0.1-0.1-0.1-0.1-0.2-0.2c-0.1,0-0.1-0.1-0.2-0.1
		c-0.1,0-0.1-0.1-0.2-0.2c0-0.2,0-0.4,0.1-0.6c0.2-0.1,0.4-0.3,0.6-0.4c0.2-0.3,0.4-0.5,0.5-0.8c0.2-0.3,0.4-0.5,0.6-0.8
		c0.1-0.2,0.2-0.5,0.2-0.7c0.1-0.2,0.1-0.4,0.1-0.7c0-0.3,0-0.5,0-0.8c-0.1-0.3-0.2-0.7-0.4-1c-0.1-0.2-0.2-0.5-0.3-0.7
		c-0.1-0.3-0.2-0.7-0.4-1s-0.3-0.7-0.4-0.9c0-0.1,0-0.3-0.1-0.5c-0.1-0.3-0.2-0.6-0.2-0.9c0-0.2-0.1-0.5-0.1-0.7
		c0-0.3-0.1-0.6-0.1-0.9c-0.1-0.3-0.1-0.6-0.1-0.9c0-0.2,0.1-0.3,0.1-0.5c0.2-0.3,0.4-0.5,0.6-0.7c0.2-0.2,0.4-0.5,0.5-0.7
		c0.2-0.3,0.5-0.7,0.7-1c0.2-0.3,0.4-0.6,0.5-0.9c0-0.2,0.1-0.4,0.1-0.7c0-0.3,0-0.5,0.1-0.8c0.1-0.3,0.3-0.5,0.5-0.7
		c0.1-0.1,0.4-0.1,0.5-0.2c0.2-0.1,0.4-0.3,0.5-0.5c0.1-0.3,0.2-0.6,0.3-0.9c0-0.2,0.1-0.3,0.1-0.5c0.1-0.2,0.2-0.3,0.4-0.4
		c0.1-0.1,0.3-0.1,0.4-0.1c0.3-0.2,0.6-0.5,0.8-0.9c0.2-0.3,0.2-0.7,0.4-0.9s0.4-0.6,0.5-0.9c0.1-0.3,0.3-0.7,0.4-1
		c0.1-0.2,0.4-0.5,0.5-0.7c0.1-0.2,0.2-0.3,0.3-0.5c0-0.2,0.1-0.4,0.3-0.6c0.1,0,0.2,0,0.4,0.1c0.3,0,0.6,0,0.9,0
		c0.2,0,0.3,0,0.5-0.1c0.2,0,0.4-0.2,0.6-0.4c0-0.2,0-0.4-0.1-0.5c0-0.1-0.1-0.2-0.1-0.3c-0.1-0.2-0.3-0.5-0.5-0.7
		c-0.1,0-0.2-0.1-0.2-0.1c0-0.2,0-0.3,0-0.5c0-0.2,0.1-0.4,0.1-0.7c0-0.4,0-0.8-0.1-1.2c-0.2-0.4-0.3-0.9-0.4-1.3
		c0-0.3,0.4-0.5,0.4-0.8c0-0.1,0-0.1-0.1-0.2c0-0.1,0.3-0.7,0.4-0.9c0.1-0.2,0.2-0.6,0.3-0.8c0.1-0.2,0.2-0.5,0.3-0.7
		c0-0.3,0.1-0.6,0.1-0.9l-1,3.3c0-0.1-0.1-0.1-0.1-0.2c-0.1-0.1-0.2-0.3-0.3-0.4c-0.2-0.1-0.5-0.1-0.7-0.2c-0.2-0.1-0.4-0.3-0.6-0.4
		c-0.1-0.1-0.2-0.2-0.4-0.3c-0.1,0-0.2,0-0.2,0.1c-0.1,0.1-0.2,0.1-0.4,0.1c0,0,0,0-0.1,0c-0.1,0-0.2,0-0.4,0
		c-0.2-0.1-0.3-0.3-0.4-0.5c0-0.1-0.1-0.2-0.1-0.2c-0.1-0.2-0.3-0.6-0.4-0.8c-0.1-0.2-0.4-0.3-0.5-0.5c-0.2-0.2-0.3-0.3-0.4-0.5
		c0-0.1-0.1-0.1-0.1-0.2v0c0,0,0-0.1,0-0.1c0-0.1,0-0.2,0-0.2v0c0,0,0,0,0,0l0,0l0,0c0,0,0-0.1,0-0.1c0-0.1,0.1-0.2,0.2-0.3
		c0.1,0,0.2,0,0.3,0c0.1,0,0.1,0.1,0.2,0.2c0.1,0.1,0.1,0.4,0.2,0.5c0.1,0.1,0.2,0.2,0.4,0.3c0.1,0.1,0.2,0.2,0.4,0.3
		c0.2,0.1,0.4,0.1,0.5,0.1c0.2,0,0.4,0,0.6,0c0.1-0.1,0.3-0.1,0.4-0.2c0.2-0.1,0.3-0.3,0.5-0.5c0.1-0.2,0.3-0.4,0.4-0.6
		c0.1-0.1,0.2-0.2,0.3-0.3c0.1-0.1,0.2-0.1,0.3-0.1c0.1,0,0.2,0,0.3,0c0.1,0.1,0.1,0.3,0.1,0.4c0,0.2-0.2,0.3-0.2,0.5
		c0,0.1,0,0.3,0,0.4c0.2,0.1,0.3,0.2,0.5,0.2c0.2,0,0.5,0.1,0.8,0.1c0.2,0,0.4,0,0.5,0c0.2-0.1,0.3-0.2,0.4-0.3c0-0.2,0-0.4,0-0.6
		c0-0.1,0-0.2,0.1-0.3c0.1-0.1,0.3-0.2,0.4-0.2c0.2-0.4,0.6-0.5,1-0.3c0,0,0,0,0.1,0c0.1,0,0.3,0,0.5,0.1c0.2,0,0.4,0.1,0.6,0.1
		c0.2,0,0.5,0,0.7-0.1c0.1,0,0.1-0.1,0.2-0.1c0.1-0.1,0.1-0.2,0.2-0.2c0-0.2,0-0.3-0.1-0.5c0-0.1-0.1-0.2-0.1-0.4
		c-0.1-0.1-0.1-0.2-0.2-0.3c-0.2-0.1-0.3-0.1-0.5-0.1c-0.1,0-0.2,0-0.3-0.1c-0.1-0.1-0.1-0.1-0.2-0.2c0-0.1,0-0.3,0-0.4
		c0-0.2-0.1-0.4-0.2-0.5c-0.1-0.1-0.2-0.2-0.3-0.2c-0.1-0.1-0.1-0.1-0.2-0.1c-0.2,0-0.4,0-0.5,0.1c-0.1,0-0.3,0-0.4,0.1
		c-0.1,0.1-0.1,0.2-0.2,0.3c-0.2,0-0.3-0.1-0.4-0.2c-0.1-0.1-0.2-0.4-0.3-0.5c-0.1-0.1-0.3-0.2-0.5-0.2c-0.1,0-0.3-0.1-0.5-0.1
		c-0.2,0-0.4-0.1-0.6-0.1c-0.2-0.1-0.4-0.2-0.6-0.3c-0.1-0.1-0.2-0.3-0.3-0.4c-0.1-0.1-0.3-0.2-0.4-0.2c-0.1,0-0.2,0-0.3,0
		c-0.1-0.1-0.3-0.2-0.4-0.3c-0.1,0-0.1-0.1-0.2-0.2c-0.1-0.2-0.2-0.3-0.3-0.5c-0.1-0.3-0.3-0.5-0.4-0.7c-0.1-0.1-0.2-0.1-0.3-0.1
		c-0.2,0-0.5,0.1-0.7,0.2c-0.1,0-0.3,0-0.4,0c-0.1,0-0.3,0-0.4,0c-0.2-0.1-0.3-0.2-0.4-0.3c-0.2-0.1-0.4-0.3-0.5-0.5
		c-0.1-0.1-0.3-0.1-0.4-0.2c-0.2-0.1-0.3-0.3-0.4-0.5c0-0.2-0.1-0.3-0.1-0.5c-0.1-0.3-0.2-0.5-0.3-0.8c-0.1-0.1-0.2-0.3-0.3-0.4
		c-0.1-0.3-0.2-0.7-0.4-0.9c-0.1-0.2-0.2-0.3-0.3-0.5c-0.1-0.1-0.2-0.2-0.4-0.3c-0.2-0.1-0.3-0.2-0.5-0.3c-0.2,0-0.3,0-0.5,0
		c-0.2,0-0.5,0-0.7,0c-0.2,0-0.5-0.1-0.7-0.2c-0.2-0.1-0.4-0.2-0.6-0.2c-0.2,0-0.3-0.1-0.5-0.1c-0.2-0.1-0.3-0.2-0.5-0.3
		c-0.2-0.1-0.4-0.3-0.5-0.4c-0.1-0.1-0.1-0.2-0.2-0.2c-0.2,0-0.4-0.1-0.6-0.1c-0.2,0-0.3,0-0.5,0.1c-0.2,0.1-0.5,0.2-0.8,0.2
		s-0.5,0.1-0.7,0.2c-0.1,0-0.4,0.1-0.5,0.1c-0.2,0.1-0.5,0.1-0.7,0.1c-0.2,0-0.4-0.1-0.5-0.2c-0.2-0.1-0.4-0.3-0.6-0.4
		c-0.2-0.1-0.4-0.2-0.6-0.3c-0.3-0.1-0.5-0.3-0.8-0.4c-0.2-0.1-0.4-0.3-0.6-0.4c-0.3-0.2-0.6-0.5-0.9-0.7c-0.1-0.1-0.4-0.2-0.5-0.3
		c-0.2-0.2-0.6-0.4-0.8-0.5c-0.1-0.1-0.3-0.1-0.4-0.2c-0.1-0.1-0.2-0.2-0.3-0.4c-0.1-0.1-0.2-0.3-0.3-0.4c-0.1-0.1-0.2-0.1-0.3-0.2
		c-0.1,0-0.2-0.1-0.3-0.2c0-0.1-0.1-0.1-0.1-0.2c0-0.2,0-0.3,0-0.5c0-0.2,0.1-0.4,0.1-0.6c0-0.1,0-0.2,0-0.3
		c-0.1-0.1-0.1-0.1-0.2-0.2c-0.1-0.1-0.2-0.1-0.3-0.2c-0.1-0.1-0.1-0.3-0.2-0.4c-0.2-0.1-0.3-0.1-0.5-0.2c-0.1-0.1-0.3-0.1-0.4-0.2
		c-0.1,0-0.2-0.1-0.3-0.2c-0.1-0.1-0.3-0.2-0.4-0.3c-0.2-0.1-0.4-0.3-0.6-0.4c-0.1-0.1-0.3-0.2-0.5-0.3c-0.1-0.1-0.3-0.2-0.4-0.3
		c-0.1-0.1-0.4-0.1-0.5-0.1s-0.4-0.1-0.5-0.2c-0.2,0-0.3,0-0.5-0.1c-0.2-0.1-0.3-0.3-0.4-0.5c0-0.1,0-0.2-0.1-0.3
		c-0.1-0.1-0.2-0.2-0.4-0.2c-0.1-0.1-0.3,0-0.5-0.1c-0.1-0.1-0.3-0.2-0.4-0.3c-0.1-0.1-0.1-0.3-0.1-0.3c-0.1-0.1-0.2-0.2-0.3-0.2
		c-0.2-0.1-0.4,0-0.5,0c-0.1-0.1-0.3-0.1-0.4-0.2c-0.1-0.1-0.2-0.1-0.3-0.2c-0.1,0-0.1-0.1-0.2-0.1c0-0.1-0.1-0.2-0.1-0.3
		c0-0.1-0.1-0.2-0.1-0.3c-0.2-0.3-0.6-0.6-1-0.7C176.2,0,176,0,175.9,0c-0.1,0-0.2,0-0.3,0.1c-0.1,0.1-0.1,0.1-0.2,0.2
		c0,0.1,0,0.2,0,0.3c0,0.1,0,0.1,0,0.2c0.1,0.1,0.1,0.2,0.2,0.2c0.1,0.1,0.2,0.2,0.3,0.3c0.1,0.1,0.2,0.1,0.3,0.1
		c0.1,0,0.1,0.1,0.2,0.1c0,0.1-0.1,0.2-0.1,0.3c0,0.1,0,0.2,0,0.2c0.1,0.1,0.2,0.2,0.3,0.3c0.1,0.1,0.2,0.2,0.3,0.3
		c0.1,0.1,0.3,0.3,0.5,0.4c0.1,0.1,0.4,0.2,0.5,0.3s0.3,0.3,0.5,0.4c0.2,0.1,0.4,0.2,0.5,0.3c0.2,0.1,0.4,0.2,0.6,0.2
		c0.1,0,0.3,0.1,0.4,0.1c0.1,0.1,0.2,0.2,0.3,0.3c0.1,0.1,0.1,0.2,0.2,0.2c0.1,0.1,0.3,0.1,0.4,0.2c0.1,0,0.2,0,0.3,0.1
		c0.1,0,0.3,0,0.4,0c0.1,0,0.2,0.1,0.3,0.1c0.1,0,0.1,0.1,0.1,0.1c0.1,0.1,0.2,0.2,0.3,0.3c0.1,0.1,0.3,0.3,0.4,0.4
		c0.1,0.2,0.3,0.3,0.4,0.5c0.1,0.1,0.3,0.2,0.4,0.4c0.1,0.2,0.1,0.4,0.1,0.6c0,0.2,0,0.4,0,0.6c0,0.1,0,0.3,0,0.4
		c0,0.1,0,0.2,0.1,0.3c0,0.1,0.1,0.1,0.1,0.1c0.1,0,0.2,0.1,0.3,0.1c0.1,0,0.2,0,0.3,0c0.1,0,0.2-0.1,0.3-0.1c0.1,0,0.1,0.1,0.1,0.2
		c-0.1,0.1-0.2,0.3-0.4,0.3c-0.1,0-0.1,0-0.2,0.1c0,0.1,0,0.1,0,0.2c0,0,0.1,0,0.1,0c0.1,0.1,0.3,0.1,0.4,0.2
		c0.2,0.2,0.4,0.4,0.5,0.6c0.1,0.1,0.2,0.3,0.2,0.5c0,0.3,0,0.5,0,0.8c0,0.2-0.1,0.3-0.2,0.5c-0.2,0.1-0.5,0.1-0.7,0.1
		c-0.1,0-0.3,0-0.4-0.1c-0.1-0.1-0.2-0.2-0.3-0.2c-0.1-0.1-0.3,0-0.4,0.1c0,0.1,0,0.2,0.1,0.3c0,0.1,0,0.2-0.1,0.3c0,0,0,0,0,0
		c0,0.1,0.1,0.2,0.1,0.3c0.1,0.1,0.1,0.1,0.2,0.1l-1.1,0l-0.9-0.2l-0.7-0.2l-0.2-0.4l-0.5-0.2c0,0,0.1-0.1,0.1-0.1c0,0,0,0,0,0
		c0.2,0.1,0.4,0.1,0.6,0.1l-0.6-0.2c0-0.1-0.1-0.1-0.1-0.2c0-0.4-0.2-0.7-0.5-0.8c-0.1-0.1-0.1-0.2-0.2-0.2
		c-0.1-0.1-0.2-0.2-0.3-0.3c-0.2-0.1-0.5-0.1-0.7-0.1c-0.1,0-0.3,0-0.4,0.1c-0.1,0-0.3,0.1-0.4,0.1c-0.1,0-0.3,0-0.4,0
		c-0.2-0.1-0.3-0.1-0.4-0.2c-0.1,0-0.2-0.1-0.3-0.1s-0.2-0.1-0.3-0.1c-0.1,0-0.2-0.1-0.3-0.1c-0.1,0-0.1-0.1-0.1-0.1
		c0-0.1,0-0.1,0-0.2c0-0.1,0-0.2,0-0.3c0-0.1,0-0.2,0-0.3c0-0.1-0.1-0.2-0.1-0.2c0,0,0-0.1,0-0.1c0.1,0,0.2,0.1,0.3,0.2
		c0,0,0.1,0.1,0.1,0.1c0.1,0,0.2,0,0.3,0.1c0.1,0,0.2,0.1,0.3,0.2c0.1,0.1,0.2,0.2,0.3,0.3c0.1,0.1,0.1,0.1,0.2,0.2
		c0.1,0.1,0.2,0.2,0.3,0.3c0,0.1,0,0.2,0.1,0.2c0.1,0.1,0.2,0.1,0.3,0c0.1,0,0.1-0.1,0.2-0.1c0.1,0,0.3,0,0.5,0h0.4
		c0.1,0,0.1,0,0.2,0c0,0,0.1-0.1,0.1-0.1c0-0.1,0-0.1,0-0.2c-0.1-0.1-0.2-0.2-0.3-0.4c0-0.1-0.1-0.2-0.2-0.3
		c-0.1-0.1-0.2-0.1-0.3-0.2c-0.1,0-0.2,0-0.3-0.1c-0.2,0-0.3-0.1-0.5-0.1c-0.1,0-0.1-0.1-0.2-0.1c-0.1,0-0.1-0.1-0.2-0.2
		c-0.1-0.1-0.2-0.2-0.3-0.3c-0.1-0.1-0.1-0.2-0.2-0.2c-0.1,0-0.1-0.1-0.2-0.1c-0.1,0-0.1-0.1-0.2-0.1c0,0,0,0,0,0
		c-0.1,0-0.2-0.1-0.3-0.2c-0.1,0-0.2-0.1-0.3-0.2c-0.1,0-0.1-0.1-0.2-0.1c-0.1-0.1-0.2-0.1-0.3-0.1c-0.1,0-0.2,0-0.3-0.1
		c-0.2-0.1-0.4-0.3-0.6-0.5c-0.1-0.1-0.3-0.2-0.4-0.3c-0.1-0.1-0.3-0.2-0.3-0.2c-0.2-0.2-0.4-0.4-0.5-0.5c0,0,0,0,0-0.1
		c-0.1,0-0.3,0.1-0.4,0.2c0,0-0.1,0.1-0.1,0.1c0,0,0,0.1,0,0.1c0,0,0,0.1,0,0.1c0,0,0,0.1,0.1,0.1c0.1,0.1,0.2,0.2,0.2,0.2
		s0.2,0.2,0.2,0.2c0.1,0.1,0.2,0.2,0.3,0.3c0.1,0.1,0.2,0.2,0.3,0.2c0.1,0,0.1,0.1,0.1,0.2c0,0.1,0,0.1,0,0.2
		c-0.3,0.1-0.5-0.5-0.8-0.7c-0.3-0.1-0.6-0.3-0.9-0.4c-0.3-0.1-0.5-0.3-0.8-0.4c-0.2-0.1-0.5-0.1-0.7-0.1c-0.2,0-0.4,0.1-0.6,0.2
		c-0.1,0.1-0.3,0.2-0.3,0.4c-0.1,0.1-0.1,0.3,0,0.4c0.1,0.1,0.3,0.2,0.5,0.3c0.2,0.1,0.5,0.1,0.7,0.2c0.2,0.1,0.5,0.3,0.7,0.5
		c0.4,0.2,0.8,0.4,1.2,0.7c0.3,0.2,0.5,0.5,0.6,0.9c0,0.2-0.1,0.4-0.2,0.6c-0.3,0.3-0.6,0.6-1,0.8c-0.3,0.2-0.7,0.3-1,0.4
		c-0.2,0.2-0.4,0.4-0.6,0.6c-0.3,0.3-0.6,0.6-0.9,0.8c-0.3,0.2-0.9,0.2-1,0.5c0,0,0,0.1,0,0.1L167,14c-0.2-0.1-0.5-0.3-0.7-0.4
		l0-0.4l-0.2-0.4l-0.3-0.4l-0.2-0.2l-0.3-0.7l-0.5-0.6v-0.5L165,10l0.3,0.1l0.3-0.1l0.2-0.2l-0.1-0.4l-0.4-0.2l-0.5-0.4l-0.6-0.2
		l-0.3-0.1l-0.6-0.2l-0.5-0.2L162.5,8l-0.2-0.4l0-0.2l-0.4-0.1l-0.3,0.1l-0.3,0.2l-0.4,0.3L160.8,8c-0.1-0.2-0.3-0.4-0.4-0.5
		c-0.2-0.2-0.5-0.4-0.8-0.6c-0.2-0.1-0.3-0.2-0.5-0.3c-0.3-0.1-0.7-0.2-0.9-0.3c-0.2-0.1-0.5-0.3-0.7-0.4l0.1-0.1l0.2-0.2l-0.2-0.7
		l-0.6-0.3l-0.5,0l-0.2,0.1l-1-1.1V3.6l-0.1-0.3L154.8,3l-0.4-0.4l-0.5-0.5l-0.5-0.5l-0.1,0.4l0.1,0.5l0.3,1.1l-0.3,0.7L153,4.6
		l-0.5-0.1l-0.4-0.3l-0.2-0.6l-0.1-0.5l0-0.5l0-0.4l0.1-0.4L151,1.4l-0.4-0.2l-0.9-0.2H149l-0.4,0.1l-0.1,0.5l0.3,0.2l0.2,0.4
		l0.1,0.5l-0.3,0.3l-0.5,0l-0.7-0.2L147,3.2l-0.5,0.3l-0.4,0.1h-0.5L145,3.7l-0.1,0l0.2-0.2c-0.1,0-0.1,0.1-0.2,0.1
		c-0.1,0.1-0.1,0.1-0.2,0.2l-0.3,0.2l-0.5,0.4l-0.4,0.4L143,5.3l-0.1,0.3c0,0-0.1,0.1-0.1,0.1c0,0.1-0.1,0.1-0.1,0.2l-0.2,0.5
		L140,9.2c0,0,0.3-0.1,0.6-0.3l-0.2,0.2l-0.3,0.6l0.2,0.7l-0.1,0.5l-0.3,0.7l-0.1,0.6l0.5,0.1l0.5,0.4l0.4,0.4h1.5l0.3,0.2l0.1,0.5
		l-0.1,0.4l0.1,0.3l0.3,0.1l0.1-0.2l0.2-0.3l0.8-0.2l1.6,0l0.1-0.1l-0.2-0.2l0.2-0.5l0.4-0.2l0.2-0.3l0.4-0.2l0.1-0.2l0.4-0.1l0.9,0
		l0.7,0l0.4-0.2l0.3-0.1l0.4,0.1l0.4,0.2l0.2,0.2l0.4,0.4c0.2,0.1,0.3,0.2,0.4,0.3c0.2,0.4,0.2,0.9,0.1,1.3
		c-0.1,0.2-0.3,0.3-0.5,0.4c-0.1,0-0.2,0-0.3-0.1c-0.1,0-0.2,0-0.2-0.1c0-0.1-0.1-0.2-0.1-0.4c0-0.2,0-0.3-0.1-0.4
		c-0.2,0-0.2,0.4-0.2,0.6c0,0.2-0.1,0.3-0.1,0.5c0,0.1,0,0.2,0,0.3l-3.9,0.3l-0.2-0.2l-0.7,0.1l-0.5,0.3l-16,1.3
		c-0.1-0.1-0.3-0.2-0.4-0.3c0-0.1-0.1-0.2-0.1-0.3c-0.1-0.1-0.3-0.1-0.4-0.1c-0.1,0.1-0.2,0.2-0.3,0.4c-0.1,0.1-0.3,0.2-0.4,0.3
		c-0.1,0.1-0.1,0.1-0.2,0.2l-30,2.4v-0.1L97,19.3l-0.4-0.2l-0.1-0.6l0.5-0.5l0.1-0.3l-0.4-0.1l-0.6,0.4l-0.5,0.3l-0.2,0.5l-0.6,0.5
		l-0.5,0.5L92.5,20c0,0,0,0,0,0l-1-0.1l-0.3-0.3h-0.4l-0.5,0.5l-0.4,0.7l-0.6,1l-0.9,1l-0.7,0.9l0.2,1.1l0.5,0.6v1l-0.6,0.9
		l-0.6,0.7c-0.4,0.2-0.9,0.3-1.3,0.3c-0.3-0.1-0.5-0.2-0.5-0.5l-0.6-0.7L84.2,27L83.7,27l-0.6,0.7l0.5,0.2l0.6,0.4l0.6,0.6l-0.4,0.4
		l-0.5,0.5l-0.4,0.4l-0.5,1l-1,0.9L81,32.6l0,0c-0.1-0.1-0.2-0.1-0.4-0.2c-0.3-0.1-0.8,0-1.1-0.1c-0.3-0.1-0.6-0.2-0.9-0.2
		c-0.5,0-1,0-1.5,0.1c-0.3,0-0.6,0.1-0.9,0.1c-0.2,0-0.4,0.1-0.6,0.2c-0.2,0-0.4,0.1-0.6,0.2c-0.2,0.1-0.4,0.2-0.7,0.3
		c-0.2,0.1-0.4,0.2-0.5,0.3c-0.1,0.1-0.2,0.2-0.3,0.4L72.8,33l-0.4-0.6l-1.1,0.1L70.2,32l-1-0.3l-0.3-0.3v-1.1l0.4-0.9l0.5-0.8v-0.9
		L69,28.1l-0.9-0.3l-0.4-0.5l-0.8-0.6h-0.7L65.2,27l-1,0.5l-1.5-0.3l-1.4-0.3l-0.9-0.4l-1,0.1l-0.1,0c0,0,0,0,0,0l-0.3,0l-0.5,0.3
		l-0.3,0.5L58,28.1l0.6,1l0.4,1l-0.3,0.6L58,30.8l-0.9,0.7l-0.5,0.4L56,32.1l-0.3,0.5l-0.3,1.2L55,34l-0.6,0.6l-0.2,1l-0.7,0.7
		l-0.3,0.8l0.2,1l2.4,0.1l1,0.1l1-0.4l0.8-0.4l1.2-0.3l1.2,0.1l0.5,0.4l0.6,0.6l0.6,1.2l-0.1,0.2c-0.1,0-0.3-0.1-0.3-0.1l-1.8,2
		l-0.3,0.3l0,0.1l-1.8,1.9c-0.2,0-0.3,0-0.5,0c-0.2,0.1-0.4,0.3-0.6,0.4c-0.1,0.1-0.3,0.2-0.4,0.2c-0.2,0-0.5,0-0.7,0.1
		c0,0.1-0.1,0.1-0.1,0.2c0,0.1,0,0.2,0,0.3c0.1,0.1,0.3,0.2,0.4,0.3c0.1,0.2,0.1,0.3,0.1,0.5L43.8,60c0,0,0.3-0.2,0.6-0.3l0.5,1
		l-0.2,0.5l-0.9,0.2l-1-0.1l-0.3,0.2l-0.1,0.8l-0.2,0.4l-0.3,0.4H41l-0.2,0.5v0.5l0.6,0.2l0.2,0.5l0,0.5l-0.6,0.3l-0.6,0.1l-0.9,0.5
		l-0.8,1.5l-0.8,1.2l-0.5,0.3l-1.5,0.1l-0.7,0.4l-1.6,0.6l-1.5,0.5l-0.8,0.3l0.4,1l-0.4-1l0,0v0l0,0L31,71.3l-0.7,0.3l-0.4-0.1
		l-0.8,0.9L27.6,74l-1,1.5l0.6,0.8l0.7,1l0.2,0.2L28,77.5c0,0,0.1,0,0.2-0.1l0.4,0.4l-0.2,1.6l0,1.7l-0.8,1L27,82.6L27,83.2
		l-0.1,1.3l-0.5,0.4l0.2,0.6l0.4,0.4l0.9,0.4l0.2,0.4l0,0c-0.2,0.1-0.3,0.3-0.5,0.4c-0.3,0.2-0.7,0.5-1,0.7
		c-0.3,0.2-0.8,0.4-1.1,0.6c-0.4,0.3-0.8,0.5-1.1,0.9c-0.1,0.1-0.2,0.3-0.4,0.4c-0.1,0.1-0.2,0.3-0.3,0.4c-0.1,0.2-0.1,0.5,0,0.7
		c0,0,0,0,0,0l-1.7,1.6l-2.6,1.7L18,94.9l-1.1,1l-1.1,1.2l-3.2,3l-2.6,2.4l-1.2,1.2L8,104.5l1.5,1.6l0.5,0.7l0,0.2c0,0,0,0,0,0l0,0
		l0.3,1.3l-1,0.8L8.7,110l-0.8,1.1L7,112.6l-0.7,1.2l0.1,1.9l-0.2,1.1l-0.5,0.9l1.2,0.8l1.7,1.3l1.7,1.7l0.4,0.9l-0.1,1l-0.6,1
		l-0.7,1.2l-0.6,0.6l-0.2,1.4l-0.3,0.4l-0.4,0.8v0.9l0.4,0.6l0.1,0.9l-0.3,0.5l-0.6,0.3l-0.9,0.3c-0.3,0-0.7,0.1-1,0.2
		c-0.3,0.1-0.5,0.2-0.5,0.2l-0.5,0.4L4,133l-0.8-0.1l-0.4-0.1L2.4,133L2,133.5L1.7,134l-0.3,0.4l-0.7,0.2l-0.5,0.9L0,135.9l0.5,0.3
		l0.5,0.2l0.2,0.4l-0.1,0.9L1,137.8l-0.4,0.1c0.1,0,0.3,0,0.4,0l-0.2,0.5l-0.4,0.9l-0.1,0.6l1.1-0.1l1.1,0.2l1.1,0.3l0.5-0.8
		l0.4-0.4l0.4-0.1l0.7,0.2l1.2,0.1l1,0.2l0.9,0.1l0.6-0.3l0.5-0.4l0.8-0.4l0.7-0.3l0.7-0.5l0.2-0.2H12l0,0l0.6-0.7l0.6-0.8l0.8-0.9
		l0.5-0.5l0.9-0.2l0.8-0.4l0.9-0.4l0.8-0.4l0.4-0.7l0.4-0.4l-0.1-0.7l-0.1-0.5l-0.5-0.3h-0.3l-0.1,0.3l-0.5,0.2h-0.8l-0.5-0.5
		l-0.8-0.6l-0.5-1l-0.1-0.1c0-0.2,0.1-0.3,0.1-0.4c0.1-0.3,0.4-0.6,0.5-0.8c0-0.2,0.1-0.4,0.1-0.6c0.1-0.1,0.2-0.1,0.3-0.2
		c0.1-0.1,0.2-0.3,0.3-0.5c0.2-0.3,0.4-0.7,0.6-1c0.3-0.4,0.6-1.1,0.8-1.5c0.2-0.3,0.4-0.7,0.6-1c0.1-0.2,0.3-0.4,0.5-0.5
		c0.2-0.2,0.5-0.3,0.7-0.5c0.2-0.2,0.3-0.4,0.5-0.6c0.5-0.2,1-0.3,1.5-0.1c0.1,0,0.3,0.1,0.4,0.2c0.2,0.1,0.4,0.3,0.6,0.5
		c0.1,0.2,0.1,0.3,0.2,0.5c0,0.2,0.1,0.4,0.2,0.5c0.2,0.3,0.5,0.5,0.8,0.6c0.2,0.1,0.3,0.1,0.5,0.1c0.2,0,0.4-0.1,0.6-0.1
		c0.1-0.1,0.3-0.2,0.4-0.3c0.1-0.1,0.2-0.2,0.3-0.3c0.1-0.1,0.2-0.3,0.3-0.4c0.1-0.1,0.2-0.2,0.3-0.3c0.2-0.1,0.3-0.2,0.5-0.2
		c0.2-0.1,0.5,0.1,0.8,0c0.4-0.2,0.8-0.4,1.1-0.6c0.2-0.1,0.5-0.2,0.7-0.4c0.2-0.1,0.3-0.2,0.5-0.4c0.1-0.2,0.1-0.4,0.1-0.6
		c0-0.2,0-0.3,0.1-0.5c0.1-0.2,0.3-0.4,0.5-0.6c0.1-0.1,0.3-0.1,0.5-0.1c0.1-0.1,0.2-0.2,0.3-0.2c0.2-0.1,0.5-0.1,0.7-0.1
		c0.1,0,0.3,0.2,0.5,0.2c0.2-0.1,0.4-0.1,0.6-0.1c0,0.1,0,0.2,0,0.3c0.2,0.1,0.5,0.2,0.8,0.1c0.5,0,0.9,0,1.4-0.1
		c0.1,0,0.3-0.2,0.4-0.2c0.3-0.1,0.6-0.1,0.8-0.1c0.4-0.1,0.9-0.2,1.3-0.3c0.2-0.1,0.4-0.2,0.6-0.2c0.2,0,0.4,0.1,0.6,0.1
		c0.2,0,0.3,0.1,0.5,0.1c0.7,0,1.4,0,2.1,0c0.2,0,0.5-0.1,0.8-0.1c0.4,0,0.7,0,1.1,0c0.1,0,0.3,0.1,0.4,0.1c0.2,0.1,0.4,0.1,0.6,0.1
		c0.3,0,0.6,0,0.8,0c0.4,0,0.8,0.1,1.2,0.2c0.3,0.1,0.6,0.6,1,0.7c0.3,0,0.6,0,0.8,0l0.2,0l0.2,1.4l-0.4,0.7l-0.6,0.6l-1,0.3L46,123
		l0.6,0.8l0.4,0.9l0.3,0.5l0.4,0.1l0.9,0.7l0.4,0.5l0.4,0.5l0.8,0.2l0.5,0.7v1.3l-0.2,1.2l-0.7,1.2l-1.1,1.5l-0.8,1.5l0.2,1.4
		l0.1,1.5l-0.9,0.5l-0.8,1.1l-0.2,0.6l0.5,0.4l0.6,0.7l1.5-0.1l0.8-0.1l0.8-0.1l1.1,0.4l1.3,0.3l0.4,0.8l-0.4,0.7l0.2,1.6l-0.1,0.8
		l-0.5,0.4l-0.2,1.2l0.1,0.8l0.6-0.1l0.4-0.4l0.4-0.8l0.2-0.4l0.9-0.1l0.5,0.2l0.5,1l0.5,0.2l0.4,0.6c-0.2,0.3-0.4,0.7-0.4,0.7
		l0.5-0.6l0.3,0.4l0.9,1.5l1.2,1.5l0.9,1.6l0.3,1.1l-0.4,1l0.9,0.2l0.9,0.2l0.1,1.2v1.2l0.7,0.8c0,0,0.9,1.3,1.1,1.6
		c0.2,0.3,0.4,0.7,0.6,1l0.6,1l0.4,1.1l0.2,0.5l0.4-0.1l0.5-1l0.6-0.7l1.2-0.1l1.1,0.9l0.6,0.8l0.5,0.1v-1.2l0.1-0.7l0.6-0.6h0.7
		l1-0.1l0.6-0.1l0.8-0.2l0.5-0.5l0.6-0.9l0.3-0.7l1.2,0.2l1.3,0.3l1-0.1l1.1,0.4l1,0.5l0.5-0.4l0.5-0.2l0.7-0.2l0.4-0.8l1-0.5
		l1.2-0.7l0.5-0.2l-0.2-0.2l0.4-1.2l0.5-0.1l0.5-0.4l0.5-0.2l0.9-0.2h0.7l0.7-0.5l-0.2-0.6l0.5-0.9l0.4-0.1l0.5-0.2l0.8,0.4l0.9,1
		l1,0.2l1.6-0.3l1.3,0.2l0.8,0.5l0.4,0.5l0.8,0.5l0.9,0.6l0.3,1.4l0.4,0.2l0.3-0.1l1.2-0.6l0.8-0.1l1.1,0.3l1.2,1.2l1-0.7l1.1,0.2
		l1,0.1l0.7-0.4v-0.3l-0.2-2l0.3-1.2l1-1.2l1.1-0.7l4.4-0.3l0.7-0.7l0.6-1.4l0.5-1.2l0.8-0.7l-0.5-0.9l0-1.8l0,0c0,0,0,0,0,0l0-0.3
		l0.3-0.5l1-0.9l1.5-0.8l1.1-0.1h1l0.2-0.8l0.5-0.9l0.8-0.7l0.8-0.2l0.1-0.4l-0.2-1.2l0.8-0.8l-0.2-1l-0.3-0.3c0,0,0.1-0.1,0.1-0.1
		l-0.4-0.3l-0.4-1.2l-0.1-1l-0.8-1.1l-1-0.9l-1.4-0.7l0.1-0.9l0.8-0.7l0.9-1.4h0l0.9-0.9l0.8-0.3l1,0.1l1,0.4l1-0.3l1.2-1.5l0.5-0.8
		v-0.5l0.5-0.4l1-0.3l0.6-1l0.9-0.6l1.9-0.8l0.4-0.9l-0.3-0.8l-0.9-0.2l-0.6-0.6l0.3-1.1l0.5-0.7l1.1-0.3l1.2-0.9l2.3-1.1l0.5-0.2v0
		l1.1-0.5l1.3-0.2l0.4,0.2l1.3,1.4l0.3,0.5l0.1,0.7l-0.1,1.4v3.2l0.2,1.8l-0.2,1.4l-0.7,1.4l-0.8,0.9l-0.2,1.2l0.9,1.3l0.3,1
		l-0.1,0.5l0.2,0.8l1.2,1l1.5,0.9l1.5,0.8l0.9,1.3l0.4,0.6c-0.3,0.1-0.7,0.1-0.7,0.1l0.9,0.1l0.9,1.3l0.9,0.8l0.1,1l0.4,0.4
		c-0.1,0.1-0.2,0.1-0.2,0.1l0.2-0.1l0.6,0.7l0.5,1l0.6,0.1l0.8,0.2l0.5,0.5l0.7,0.4l1,0.1l0.6,0.4l0.4,0.2c0,0.2-0.1,0.3-0.1,0.5
		c-0.1,0.2-0.1,0.6-0.2,0.8c-0.1,0.1-0.1,0.3-0.1,0.5c0,0.1,0,0.3,0.1,0.4c0,0,0,0.1,0,0.1h1.3c0,0,0-0.2,0.1-0.3
		c0.1-0.2,0.2-0.5,0.3-0.7c0.1-0.2,0.2-0.4,0.3-0.5c0.1-0.2,0.3-0.4,0.5-0.5c0.1-0.1,0.2-0.2,0.3-0.3c0.1,0,0.2-0.1,0.2-0.1
		c0.1,0,0.2,0,0.3-0.1c0,0,0,0,0.1-0.1l0.8,0.4l0.8,0.7l0.4-0.2l0.6-0.5l0.3-0.3l0.4,0.1l1.3,1.3l0.9,1.1l0.5,0.8l0.1,0.8l-0.5,0.5
		l-0.4,0.3l-0.2,0.1l-0.1,0.4l-0.1,0.9l-0.4,0.3l-1,0.7l-0.6,0.6l-0.2,0.7l0.3,0.7h0.4l0.7,0.1l0.9,0.4l0.6,0.7l0.8,0.7l0.6,0.7
		l0.6,0.1l0,0c0,0.1,0.1,0.1,0.1,0.2c0.1,0.1,0.1,0.2,0.2,0.3c0,0.1,0,0.3,0,0.4c0,0.3,0.1,0.7,0.1,0.9c0,0.2,0,0.5,0.1,0.7
		c0,0.2-0.1,0.4-0.1,0.5c0.1,0.2,0.2,0.4,0.3,0.5c0.1,0.1,0.2,0.1,0.2,0.2c0.1,0,0.1,0.1,0.1,0.1c0,0.2,0,0.4,0,0.6
		c0.1,0.1,0.2,0.1,0.3,0.1c0.2-0.1,0.3-0.2,0.5-0.3c0.1-0.1,0.1-0.1,0.2-0.2l0.3,0.4v0.6l0.4,1.1l0.8,1.3l-0.1,0.7l-0.7,0.7l-0.6,1
		v0.6l0.4,0.1l0.6-0.7l0.4,0l0,0c0,0,0,0,0,0l0.5,0l0.6,0.7l0.8,0.2l0.8-0.1l0.5,0.2l0.1,0.8l0.7,0.2l1-0.5l0.2-1.3l0.2-0.8l0.4-0.9
		l0.3-1.1l0.8-0.5l0.5-0.6l0.2-0.8l-0.2-0.2c0,0-0.6-0.8-0.8-1c-0.3-0.3-0.6-0.5-0.9-0.7h-1.2l-0.5-0.4l-0.2-0.6l0.1-0.8l-0.4-0.7
		l-0.4-0.5l-0.3-0.9l-0.1-0.4l0.4-0.5l0.5-0.5l0.6-0.2l0-0.6v0c0.1,0,0.2-0.1,0.4-0.1c0.2-0.1,0.3-0.2,0.5-0.4
		c0.1-0.1,0.3-0.3,0.4-0.4c0.1-0.1,0.2-0.1,0.3-0.2c0.2,0,0.4-0.1,0.6-0.1c0.3,0,0.8,0,1.1,0c0.2,0,0.4,0,0.5,0
		c0.3,0,0.6-0.1,0.9-0.2c0.2-0.1,0.3-0.2,0.5-0.3c0.2-0.1,0.3-0.3,0.5-0.4c0.1-0.1,0.2-0.3,0.3-0.4c0.1,0,0.1-0.1,0.1-0.2
		c0-0.1,0-0.2-0.1-0.3c-0.1-0.1-0.2-0.2-0.3-0.2c-0.1,0-0.3,0.1-0.4,0.2c-0.1,0.1-0.1,0.1-0.2,0.2c-0.1,0.1-0.3,0.2-0.4,0.3
		c-0.1,0.1-0.3,0.2-0.4,0.2c-0.1,0-0.3,0.1-0.5,0.1c-0.2,0-0.4,0.1-0.6,0.1c-0.2,0-0.4,0.1-0.6,0.1c-0.2,0-0.5-0.1-0.7-0.1
		c-0.2,0-0.5,0-0.7,0.1c-0.1,0.1-0.3,0.1-0.4,0.2c-0.1,0.1-0.3,0.2-0.5,0.2c0,0-0.1,0.1-0.1,0.1c-0.1,0.1-0.2,0.1-0.3,0.2v-0.1
		l-0.3-0.3l-0.3-0.7l0.1-1.1l0.4-1.1l0.6-0.4l1-0.4l1.1-0.4l0.5-0.3l0.4-0.6l0.2-0.8l-0.1-0.9l-0.4-0.9l-0.2-0.7l0.4-0.9l1.6-0.7
		l1.1-1l0.6-0.7l0.5-0.2l0.5-0.9l0.5-0.3l1.3-0.2l0.1-0.7l0.2-0.9l0.6-1l0.4-0.3l0.5-0.8l0.1-0.6l0.8-0.7l0.5-0.3l0.1-0.6l0.1-1.9
		l1-1.2l1-2.1l0.6-1.3l-0.1-1.7l-0.5-0.9l-0.2-1.5v-2.3l-1.9-1.7l-0.1-1.3l0.6-0.5l0.9-0.6l0.3-0.6l-0.2-1.4l-0.1-0.9l0.8-0.9
		l1.2-0.5l1.3-0.2l1.6-0.2l0.9,0.3l0.1,0.8v0.7l1,0.8l0.4,0.5l0.7,0.2l0.1-0.3l0.4-0.7l0.1-0.8l0.7-0.8l0.4-0.4l1.2,0.1l0,0l0.5,0.7
		l0.1,0.9l-0.3,1.5l-0.4,1.2l-0.1,0.9v1.2l0.3,0.9l0.7,1.5l-0.1,1.2l-0.2,0.8l0.9,0.5l0.9,0.6l0.7,0.5l0.4,1.3l0.1,0.4l0,0h0.1
		l0.1,0.3l0.7,1l0.8,0.8l1.6,0.8l0.9,0.5l1.2,0.1l0.6,0.2l0.8-0.1l1.2-0.3l1.1-0.4l1,0.2l0.4,0.2l0.5-0.4l0.3-0.8l-0.1-0.8l0.1-1.5
		l0.4-0.6l0.9-0.5l0.9,0.5l1.2,0.6l0.6-0.1l0.6-0.4l0.6-0.4l0.4-0.8l1-0.3h1.6l0.6-0.3l0.5-0.3l0.8-0.4l0.9-0.2l0.9,0.2l0.7-0.4
		l0.6-0.3l0.5,0.5l0.5,0.7l0.5,0.7l1,0.9l0.1,1.2l-0.4,0.2l0.1,1.1l0.4,0.5v0.8l-0.1,1.1l0.4,0.3l1.4,0.6l1.2,0.8l0.3,1l-0.2,1.4
		l-0.1,1l0.5,0.4l0.3,0.4l0.3-0.3l0.4-0.6l0.9-0.1l1,0.3l0.9,0.1l0.5-0.1l0.3-0.4l0.2,0.2l-0.1-0.2l0.8-1l0.9-1l-0.5-1l-0.5-0.9
		l-0.8-1l-0.6-0.6l-0.8-1l-0.5-1.2l-0.2-0.9l0.3-1l0.3-1l0.2-0.9l0-0.2l0.5-0.4l0.7-0.3l1-0.8l0.2-0.3l-0.2-0.6l-0.7-0.8l-0.3-0.6
		l-0.2-0.5c0,0-0.6,0.2-0.9,0.3c-0.2,0.1-0.5,0.1-0.7,0.2l-1,0.1l-0.6,0.1l-0.7-0.3l-0.5-0.1l-0.5-0.9l-0.6-0.8l0.1-1.1l0.2-0.6
		l-0.2-0.6l-0.2-1.5l0.5-0.9l0.2-0.4l0.1-1v-1.2l0.2-0.7l1.2-1.2l0.2-0.8l0.6-0.5l0.8-0.3l-0.2-1.2l0.4-0.8l0.8-0.2l0.7,0.2l0.3-0.2
		l1-0.3l0.4-0.4l0.6-0.2l0.2-0.5l0.8-0.2l0.6,0l0.7,0.3h0.4l0.2-0.4v-0.3l0.2-0.5l0.7,0l0.1,0.3l0.3,0.7l0.5,0.7l0.1,0.4l0,0.9
		l-0.6,0.5L244,104l0.5,0.4l0.4,0.2l1.1,0.1l0.7,0.4l0.3,0.8l0.3,0.6l0.2,0.5l1.9,0l0.7-0.3l1.6,0.1l0.7,0.2l1.3-0.1l0.9,0.2
		l0.5,0.3l0.7,0.1l0.7-1l0.3-1l0.4-0.9l0.2-1.3l0-1.8l-0.8-0.9l-0.4-0.5c0,0,0,0,0,0h0l-0.1-0.1l-1.2-0.5l-1.2,0.3l-0.7,0.1
		l-0.5-0.3l-0.2-0.8l-0.4-1.5l-0.3-0.4l-0.1-1.6l0.3-0.4l1.7-1.6l-0.2-0.6l-0.5-0.3l-0.2-0.6l0.2-0.4l0.7-0.6l1-0.6l0.8-0.4l0-0.4
		l-0.5-0.8l-0.4-0.6l-0.2-0.9l0.1-0.6l0.5-0.4l0.6-0.4l0.4-0.6l0-0.7l0.3-0.8l0.5-0.8l0.2-1l0.1-0.6l-0.2-0.5l0.1-0.8l-0.3-0.6
		c0-0.2,0.1-0.4,0.1-0.6C256.5,78.3,256.6,78.1,256.7,77.8L256.7,77.8z M144,19.7c-0.1,0.1-0.2,0.2-0.3,0.4
		C143.8,19.9,143.9,19.8,144,19.7L144,19.7L144,19.7z M154.1,10l0.1-0.5l-0.1-0.4l0.3-0.4l0.2-0.2l0.5-0.1l0.5,0l0.7,0.1l0.3,0.2
		l0.3,0.4l0.4,0.1l0.4-0.1l0.1-0.5L157.5,8L157,7.6L156.9,7l0.2-0.6l0.2-0.3l4.5,4.9l-0.1,0.3l-0.2,0.5c-0.3,0-0.5-0.1-0.8-0.2
		c-0.2-0.1-0.4-0.2-0.6-0.3c-0.1-0.1-0.3-0.3-0.4-0.4c-0.2,0-0.3-0.1-0.5-0.1c-0.2,0-0.3-0.1-0.5-0.1c-0.2-0.1-0.4-0.2-0.5-0.2
		c-0.1,0-0.1-0.1-0.2-0.1c-0.3,0-0.6,0-0.9,0.1c-0.2,0-0.3,0.1-0.5,0.1c-0.1-0.1-0.2-0.1-0.4-0.2c-0.2-0.1-0.3-0.1-0.5-0.1
		c-0.2,0.1-0.4,0.3-0.5,0.4c-0.1,0.1-0.3,0.1-0.4,0.1c-0.1,0.1-0.2,0.2-0.4,0.2c0,0,0,0,0,0c0,0,0,0-0.1-0.1c0,0,0,0,0-0.1
		c0,0,0,0,0,0h0l-0.1-0.3L154.1,10z M59.4,43.3c0.1,0,0.2-0.1,0.3-0.1l0,0.1c-0.1,0.1-0.5,0.3-0.6,0.4
		C59.2,43.6,59.3,43.4,59.4,43.3z M136.8,106.4L136.8,106.4l0.7,3.1L136.8,106.4z M173.1,6.1C173.1,6.1,173.1,6.1,173.1,6.1
		C173.1,6.1,173.1,6.1,173.1,6.1z"/>
	<path id="dot" class="st1" d="M77.3,129.4c2.5,0,4.5,2,4.5,4.4c0,2.5-2,4.5-4.4,4.5c-2.5,0-4.5-2-4.5-4.4c0,0,0,0,0-0.1
		C72.9,131.4,74.9,129.4,77.3,129.4z M11.2,132.2c2.5,0,4.5,2,4.5,4.5s-2,4.5-4.5,4.5c-2.5,0-4.5-2-4.5-4.5c0,0,0,0,0,0
		C6.7,134.2,8.7,132.2,11.2,132.2z M44.5,64.9c2.5,0,4.5,2,4.5,4.5s-2,4.5-4.5,4.5c-2.5,0-4.5-2-4.5-4.5c0,0,0,0,0,0
		C40.1,66.9,42.1,64.9,44.5,64.9z M54.5,68.3c2.5,0,4.5,2,4.5,4.5s-2,4.5-4.5,4.5c-2.5,0-4.5-2-4.5-4.5c0,0,0,0,0,0
		C50.1,70.3,52.1,68.3,54.5,68.3C54.5,68.3,54.5,68.3,54.5,68.3z M51.2,58.8c2.5,0,4.5,2,4.5,4.5s-2,4.5-4.5,4.5
		c-2.5,0-4.5-2-4.5-4.5c0,0,0,0,0,0C46.7,60.8,48.7,58.8,51.2,58.8L51.2,58.8z M71.2,58.8c2.5,0,4.5,2,4.5,4.5s-2,4.5-4.5,4.5
		c-2.5,0-4.5-2-4.5-4.5c0,0,0,0,0,0C66.8,60.8,68.8,58.8,71.2,58.8z M90.7,51.5c2.5,0,4.5,2,4.5,4.4c0,2.5-2,4.5-4.4,4.5
		c-2.5,0-4.5-2-4.5-4.4c0,0,0,0,0,0C86.2,53.5,88.2,51.5,90.7,51.5C90.7,51.5,90.7,51.5,90.7,51.5L90.7,51.5z M80.1,49.2
		c2.5,0,4.5,2,4.5,4.4c0,2.5-2,4.5-4.4,4.5s-4.5-2-4.5-4.4c0,0,0,0,0,0C75.7,51.2,77.7,49.2,80.1,49.2
		C80.1,49.2,80.1,49.2,80.1,49.2L80.1,49.2z M75.7,39.2c2.5,0,4.5,2,4.5,4.5c0,2.5-2,4.5-4.5,4.5c-2.5,0-4.5-2-4.5-4.5c0,0,0,0,0,0
		C71.2,41.2,73.2,39.2,75.7,39.2C75.7,39.2,75.7,39.2,75.7,39.2z M90.7,21.8c2.5,0,4.5,2,4.5,4.4c0,2.5-2,4.5-4.4,4.5
		s-4.5-2-4.5-4.4c0,0,0,0,0,0C86.2,23.8,88.2,21.8,90.7,21.8C90.7,21.8,90.7,21.8,90.7,21.8z M144.1,36.4c2.5,0,4.5,2,4.5,4.5
		s-2,4.5-4.5,4.5c-2.5,0-4.5-2-4.5-4.5c0,0,0,0,0,0C139.6,38.4,141.6,36.4,144.1,36.4L144.1,36.4z M148.5,10c2.5,0,4.5,2,4.5,4.5
		s-2,4.5-4.5,4.5c-2.5,0-4.5-2-4.5-4.5c0,0,0,0,0,0C144.1,12,146,10,148.5,10L148.5,10z"/>
</g>
</svg>
