<svg xmlns="http://www.w3.org/2000/svg" width="464" height="298" viewBox="0 0 464 298">
  <defs>
    <style>
      .cls-1 {
        fill: #fff;
        fill-rule: evenodd;
      }
    </style>
  </defs>
  <path id="map" class="cls-1" d="M1057.56,1597.53a2.929,2.929,0,0,0-1.03-.39,7.389,7.389,0,0,0-1.04.13,5.077,5.077,0,0,1-.78,0,1.275,1.275,0,0,1-.19-0.01l4.21,1.31A9.019,9.019,0,0,0,1057.56,1597.53Zm133.11,116.25c0.13-.4.35-0.91,0.52-1.29a6.546,6.546,0,0,1,.64-1.3c0.19-.24.59-0.41,0.78-0.65a2.484,2.484,0,0,0,.28-0.51c0.06-.14.11-0.26,0.11-0.26l-0.08.07-0.05-.07s-0.18-.91-0.26-1.3a5.582,5.582,0,0,0-.26-1.16,4.459,4.459,0,0,0-.9-1.17,3.637,3.637,0,0,0-1.04-.65c-0.56-.17-1.41.11-1.94-0.12-0.58-.25-0.97-1.2-1.56-1.43-0.29-.11-0.72,0-0.94-0.13l-0.05-1.91-2.61-2.89-0.97-.27-2.06.55-1.93.82-0.41,2.2-0.82,2.2-1.11,1.65-0.96.14,0.28,1.24-0.14,1.65-1.38.96h-2.34l-1.51-.27-1.1-.69-0.96.96-0.28,1.79-0.69,1.38-0.13,4.81-3.31-.14-1.78.97-1.93,1.78-2.34.97-5.21-.28,0.01-.01-1.13-1.91-2.06.13-1.1-1.23-1.38-2.76-2.75-1.65-1.79-.27-1.92-2.06-3.44.41-1.65-.97-2.76-1.78-1.92-.97-0.69-.68,0.14-.97-0.14-2.06-0.41-1.1,0.82-2.89,0.83-1.1-0.41-1.51-0.69-1.24-0.28-1.51-2.89,1.37-1.65-.41-1.79-.83-1.65-1.65-2.47-1.23-2.48-.28-3.3-.55-2.62-1.51-3.71-.83-1.58.62-1.72-.21-1.72-.41-0.76.35-0.62.55-1.72.55-1.31-.14-0.41-.83-1.24-.89-1.72-.07-0.55.89-0.55.62-1.65.07-1.22-.58a1.346,1.346,0,0,0-.39-0.3c-0.09-.05-0.19-0.1-0.28-0.16a0.668,0.668,0,0,1-.3-0.3,1.3,1.3,0,0,1,.2-0.99,8.308,8.308,0,0,1,1.04-.65,12.25,12.25,0,0,0,.91-1.42,15.755,15.755,0,0,0,1.16-1.43,6.213,6.213,0,0,0,.39-1.29,9.4,9.4,0,0,0,.26-1.17,5.624,5.624,0,0,0,0-1.42,10.868,10.868,0,0,0-.65-1.81c-0.15-.39-0.37-0.91-0.52-1.3-0.2-.54-0.42-1.28-0.64-1.81-0.21-.51-0.62-1.15-0.78-1.68-0.08-.27-0.08-0.64-0.13-0.91-0.09-.47-0.28-1.08-0.39-1.55-0.08-.39-0.19-0.91-0.26-1.3-0.08-.46-0.2-1.08-0.26-1.55a8.65,8.65,0,0,1-.13-1.68,2.88,2.88,0,0,1,.26-0.91,10.674,10.674,0,0,1,1.04-1.29c0.28-.38.63-0.91,0.91-1.3,0.38-.54.94-1.24,1.29-1.81a8.835,8.835,0,0,0,.91-1.68,7.617,7.617,0,0,0,.13-1.17,5.567,5.567,0,0,1,.13-1.42,3.122,3.122,0,0,1,.9-1.17c0.24-.18.66-0.22,0.91-0.39a3.249,3.249,0,0,0,.91-0.9,7.968,7.968,0,0,0,.51-1.68,5.311,5.311,0,0,1,.26-0.91,2.341,2.341,0,0,1,.65-0.78c0.2-.14.57-0.12,0.78-0.26a5.266,5.266,0,0,0,1.42-1.55c0.29-.46.41-1.2,0.65-1.68s0.66-1.07.9-1.56c0.27-.52.49-1.29,0.78-1.81,0.23-.41.65-0.89,0.91-1.29,0.17-.27.37-0.63,0.52-0.91a2.177,2.177,0,0,1,.51-1.03,1.41,1.41,0,0,1,.65.12,8.915,8.915,0,0,0,1.55,0,3.443,3.443,0,0,0,.91-0.12,1.9,1.9,0,0,0,1.04-.65,1.543,1.543,0,0,0-.13-0.91,2.806,2.806,0,0,0-.26-0.52,6.376,6.376,0,0,0-.91-1.16,2.206,2.206,0,0,1-.39-0.26,1.867,1.867,0,0,1,0-.91c0.04-.35.23-0.8,0.26-1.16a8.452,8.452,0,0,0-.13-2.07c-0.14-.73-0.81-1.6-0.77-2.33,0.02-.47.67-0.96,0.64-1.43a0.491,0.491,0,0,0-.12-0.28c0.07-.18.47-1.2,0.64-1.66,0.16-.42.36-1,0.52-1.42a12.145,12.145,0,0,0,.52-1.3,12.381,12.381,0,0,0,.13-1.55l-1.81,5.92c-0.08-.12-0.19-0.25-0.26-0.35a2.4,2.4,0,0,0-.52-0.65,11.074,11.074,0,0,0-1.3-.26,5.939,5.939,0,0,1-1.03-.78,2.064,2.064,0,0,0-.65-0.51,0.841,0.841,0,0,0-.39.12,4.006,4.006,0,0,1-.65.26,0.563,0.563,0,0,1-.13,0,1.533,1.533,0,0,1-.64,0,2.605,2.605,0,0,1-.65-0.9c-0.08-.12-0.19-0.27-0.26-0.39a16.117,16.117,0,0,0-.78-1.42c-0.23-.31-0.64-0.63-0.9-0.91a4.817,4.817,0,0,1-.78-0.91,1.916,1.916,0,0,1-.14-0.39,0.037,0.037,0,0,0-.01-0.03l-0.03-.12c-0.05-.19-0.07-0.34-0.07-0.32v-0.01a0.077,0.077,0,0,1-.01-0.03v0.01l-0.03-.05c0.02-.05.04-0.09,0.06-0.13a1.372,1.372,0,0,1,.33-0.62,0.649,0.649,0,0,1,.49.05,0.814,0.814,0,0,1,.33.28c0.16,0.24.14,0.67,0.29,0.91a2.957,2.957,0,0,0,.66.61,2.9,2.9,0,0,0,.65.45,3.72,3.72,0,0,0,.99.21,3.181,3.181,0,0,0,1.11-.04,2.609,2.609,0,0,0,.65-0.45,10.7,10.7,0,0,0,.83-0.82c0.25-.29.53-0.71,0.78-0.99a2.8,2.8,0,0,1,.57-0.57,1.906,1.906,0,0,1,.62-0.17,0.633,0.633,0,0,1,.45,0,0.936,0.936,0,0,1,.12.74c-0.03.28-.33,0.58-0.37,0.86a1.106,1.106,0,0,0,.08.7,1.921,1.921,0,0,0,.99.45,6.21,6.21,0,0,0,1.36.13,2.961,2.961,0,0,0,.94-0.05,1.434,1.434,0,0,0,.74-0.53,3.785,3.785,0,0,0,.04-1.07,1.39,1.39,0,0,1,.17-0.61,2.626,2.626,0,0,1,.69-0.41,1.311,1.311,0,0,1,1.89-.46c0.26,0.04.61,0.06,0.87,0.09,0.34,0.03.8,0.12,1.15,0.12a3.9,3.9,0,0,0,1.23-.12,1.308,1.308,0,0,0,.33-0.25,1.068,1.068,0,0,0,.28-0.45,1.966,1.966,0,0,0-.16-0.82,3.094,3.094,0,0,0-.25-0.66,1.334,1.334,0,0,0-.37-0.45,3.055,3.055,0,0,0-.86-0.25,2.3,2.3,0,0,1-.45-0.12,0.841,0.841,0,0,1-.33-0.37,5.582,5.582,0,0,1,.04-0.7,2.371,2.371,0,0,0-.41-0.9,2.735,2.735,0,0,0-.49-0.41,1.272,1.272,0,0,0-.37-0.25,3.4,3.4,0,0,0-.99.12,2.279,2.279,0,0,0-.74.09,2.485,2.485,0,0,1-.41.53,1.116,1.116,0,0,1-.74-0.41c-0.22-.21-0.31-0.66-0.53-0.86a2.431,2.431,0,0,0-.82-0.41,8.709,8.709,0,0,0-.86-0.17,7.549,7.549,0,0,1-1.07-.24,4.7,4.7,0,0,1-1.11-.58c-0.22-.16-0.41-0.49-0.62-0.66a2.614,2.614,0,0,0-.78-0.45,5.68,5.68,0,0,1-.61-0.04,3.07,3.07,0,0,1-.74-0.49,1.757,1.757,0,0,1-.37-0.29,6.7,6.7,0,0,1-.54-0.9,4.173,4.173,0,0,0-.78-1.27,1.082,1.082,0,0,0-.61-0.17,10.189,10.189,0,0,0-1.32.33c-0.23.03-.54,0.03-0.78,0.04a2.632,2.632,0,0,1-.74.04,2.882,2.882,0,0,1-.74-0.49c-0.3-.23-0.66-0.61-0.98-0.82-0.21-.14-0.55-0.21-0.74-0.37a2.907,2.907,0,0,1-.66-0.86,6.119,6.119,0,0,1-.2-0.87,9.1,9.1,0,0,0-.5-1.35c-0.13-.25-0.39-0.53-0.53-0.78-0.26-.47-0.44-1.18-0.7-1.64a4.7,4.7,0,0,0-.57-0.83,6.444,6.444,0,0,0-.7-0.57,4.034,4.034,0,0,0-.95-0.58,4.207,4.207,0,0,0-.94-0.04c-0.37,0-.87.04-1.23,0a8.616,8.616,0,0,1-1.32-.28c-0.34-.1-0.77-0.3-1.11-0.41a8.467,8.467,0,0,1-.86-0.25,4.907,4.907,0,0,1-.82-0.62,11.18,11.18,0,0,1-.9-0.78,2.575,2.575,0,0,0-.42-0.45,6,6,0,0,0-1.15-.12,1.823,1.823,0,0,0-.82.12c-0.41.09-.94,0.26-1.35,0.37s-0.92.24-1.32,0.33c-0.27.06-.63,0.13-0.9,0.16a5.3,5.3,0,0,1-1.31.13,3.54,3.54,0,0,1-.95-0.37c-0.34-.18-0.73-0.52-1.07-0.7-0.32-.17-0.78-0.33-1.11-0.49-0.44-.22-1.02-0.52-1.43-0.78-0.34-.22-0.76-0.54-1.07-0.78-0.49-.38-1.1-0.92-1.6-1.28-0.26-.18-0.63-0.4-0.91-0.57-0.43-.27-0.99-0.66-1.43-0.9a8.036,8.036,0,0,1-.78-0.37,3.542,3.542,0,0,1-.58-0.7c-0.15-.2-0.28-0.52-0.45-0.7a2.866,2.866,0,0,0-.49-0.37,3.244,3.244,0,0,1-.54-0.33,0.783,0.783,0,0,1-.16-0.33,3.468,3.468,0,0,1,.08-0.9c0.03-.35.1-0.8,0.12-1.15a0.858,0.858,0,0,0,0-.45,1.02,1.02,0,0,0-.41-0.29,3.1,3.1,0,0,1-.57-0.37c-0.17-.16-0.23-0.51-0.41-0.66a3.441,3.441,0,0,0-.91-0.28c-0.21-.08-0.49-0.19-0.69-0.29a4.629,4.629,0,0,1-.54-0.29c-0.25-.16-0.54-0.43-0.78-0.61-0.31-.24-0.74-0.55-1.07-0.78-0.24-.18-0.57-0.41-0.82-0.58a5.27,5.27,0,0,0-.74-0.49,7.209,7.209,0,0,0-.94-0.25c-0.3-.08-0.69-0.21-0.99-0.29a3,3,0,0,1-.86-0.2,2.2,2.2,0,0,1-.66-0.82,4.246,4.246,0,0,0-.12-0.62,1.518,1.518,0,0,0-.7-0.45c-0.23-.08-0.59.01-0.82-0.08a1.732,1.732,0,0,1-.66-0.54c-0.11-.16-0.09-0.45-0.2-0.61a1.153,1.153,0,0,0-.5-0.37c-0.27-.11-0.7.01-0.98-0.08a3.462,3.462,0,0,1-.66-0.41c-0.14-.1-0.32-0.23-0.45-0.33a1.683,1.683,0,0,1-.33-0.25,2.01,2.01,0,0,1-.16-0.49,2.666,2.666,0,0,0-.21-0.62,3.366,3.366,0,0,0-.9-0.82,3.286,3.286,0,0,0-.91-0.37,3.023,3.023,0,0,0-.9-0.08,1.314,1.314,0,0,0-.53.16,0.993,0.993,0,0,0-.29.41,2.154,2.154,0,0,0-.08.62,0.772,0.772,0,0,0,0,.37,1.623,1.623,0,0,0,.37.37,3.54,3.54,0,0,0,.49.53,5.727,5.727,0,0,0,.62.25,0.624,0.624,0,0,1,.32.25,1.9,1.9,0,0,1-.24.53,0.738,0.738,0,0,0,.08.41,3.208,3.208,0,0,0,.62.53c0.18,0.18.39,0.44,0.57,0.62,0.24,0.23.56,0.53,0.82,0.74s0.65,0.42.91,0.62c0.28,0.21.6,0.57,0.9,0.78a7.228,7.228,0,0,0,.99.53c0.32,0.15.77,0.32,1.1,0.45a3.231,3.231,0,0,1,.7.25,2.621,2.621,0,0,1,.45.49,3.7,3.7,0,0,0,.37.41,2.481,2.481,0,0,0,.74.29,4.331,4.331,0,0,0,.5.08c0.2,0.02.49,0,.69,0.04a2,2,0,0,1,.54.17,1.5,1.5,0,0,1,.24.2c0.19,0.17.44,0.4,0.62,0.58,0.21,0.2.49,0.48,0.7,0.69,0.24,0.26.54,0.61,0.78,0.87a4.157,4.157,0,0,1,.7.69,3.164,3.164,0,0,1,.2,1.15,8.17,8.17,0,0,1-.08,1.11,4.171,4.171,0,0,0-.08.7,1.358,1.358,0,0,0,.12.49,0.747,0.747,0,0,0,.25.25,1.812,1.812,0,0,0,.57.12,3.133,3.133,0,0,0,.53.02,1.165,1.165,0,0,1,.46-0.12,0.356,0.356,0,0,1,.24.29,1.278,1.278,0,0,1-.7.52,0.968,0.968,0,0,0-.35.18,0.371,0.371,0,0,0,0,.34,0.438,0.438,0,0,0,.23.06,3.061,3.061,0,0,1,.7.41,5.135,5.135,0,0,1,.99,1.04,2.82,2.82,0,0,1,.35.82,4.066,4.066,0,0,1-.06,1.39,1.5,1.5,0,0,1-.35.81,2.308,2.308,0,0,1-1.34.18,2,2,0,0,1-.69-0.12,4.909,4.909,0,0,0-.53-0.4,0.778,0.778,0,0,0-.75.11,1.135,1.135,0,0,0,.17.52c0.01,0.18-.1.41-0.11,0.59a0.165,0.165,0,0,0,0,.07,1.631,1.631,0,0,0,.27.6,1.09,1.09,0,0,0,.34.24l-1.97.06-1.58-.42-1.31-.41-0.28-.76-0.91-.32a0.4,0.4,0,0,0,.18-0.23v-0.05a2.965,2.965,0,0,0,1,.09l-1.09-.33a2.568,2.568,0,0,1-.2-0.35,5.439,5.439,0,0,0-.2-0.72,6.818,6.818,0,0,0-.76-0.76c-0.11-.12-0.24-0.31-0.35-0.43a1.956,1.956,0,0,0-.52-0.55,3.024,3.024,0,0,0-1.31-.09,4.085,4.085,0,0,0-.78.12c-0.22.05-.5,0.19-0.73,0.23a2.364,2.364,0,0,1-.75.03,8.172,8.172,0,0,1-.79-0.38c-0.15-.06-0.36-0.1-0.52-0.15-0.18-.05-0.41-0.14-0.58-0.2a3.265,3.265,0,0,1-.55-0.2,0.732,0.732,0,0,1-.26-0.23,0.835,0.835,0,0,1,.03-0.35c0.01-.15.04-0.35,0.05-0.5a2.691,2.691,0,0,0,.06-0.63c-0.02-.13-0.13-0.26-0.14-0.38a0.273,0.273,0,0,1,.05-0.26,0.827,0.827,0,0,1,.53.4,1.308,1.308,0,0,0,.23.24,4.416,4.416,0,0,0,.52.14,3.6,3.6,0,0,1,.5.29c0.18,0.13.4,0.32,0.58,0.47,0.11,0.09.27,0.21,0.37,0.31a2.613,2.613,0,0,1,.47.47,1.67,1.67,0,0,0,.14.43,0.753,0.753,0,0,0,.59.06c0.12-.03.22-0.19,0.34-0.23a3.207,3.207,0,0,1,.82-0.06c0.19,0,.44-0.01.64,0a0.685,0.685,0,0,0,.37.03,0.29,0.29,0,0,0,.1-0.23,0.575,0.575,0,0,0-.05-0.26,5.933,5.933,0,0,0-.48-0.64,3.186,3.186,0,0,0-.29-0.55,1.48,1.48,0,0,0-.57-0.26c-0.18-.06-0.44-0.07-0.62-0.11a5.767,5.767,0,0,1-.82-0.2,2.09,2.09,0,0,1-.29-0.16c-0.11-.08-0.25-0.2-0.36-0.29-0.17-.14-0.41-0.32-0.58-0.46-0.12-.11-0.26-0.27-0.38-0.37a2.3,2.3,0,0,0-.33-0.21,1.468,1.468,0,0,0-.34-0.15,0.17,0.17,0,0,0-.07-0.01,3.564,3.564,0,0,1-.51-0.27c-0.15-.08-0.33-0.23-0.48-0.31a3.474,3.474,0,0,0-.33-0.18,4.96,4.96,0,0,0-.62-0.2,3.951,3.951,0,0,1-.59-0.16,7.967,7.967,0,0,1-1.03-.83c-0.2-.16-0.47-0.37-0.68-0.52-0.18-.13-0.45-0.27-0.62-0.41a13.341,13.341,0,0,1-.93-0.96,0.54,0.54,0,0,1-.08-0.08,1,1,0,0,0-.65.26,0.381,0.381,0,0,0-.14.19,0.5,0.5,0,0,0-.02.21,1.435,1.435,0,0,0,.04.22,0.794,0.794,0,0,0,.14.18c0.11,0.13.28,0.28,0.4,0.4s0.31,0.28.44,0.41c0.17,0.17.38,0.43,0.56,0.59,0.14,0.14.36,0.27,0.5,0.41a0.877,0.877,0,0,1,.26.32,0.309,0.309,0,0,1-.04.33c-0.54.2-.92-0.97-1.4-1.27a12.971,12.971,0,0,0-1.62-.7,11.426,11.426,0,0,0-1.4-.7,3.923,3.923,0,0,0-1.28-.11,2.655,2.655,0,0,0-1.16.35,1.611,1.611,0,0,0-.58.69,0.941,0.941,0,0,0,0,.7,1.9,1.9,0,0,0,.93.46c0.37,0.15.91,0.19,1.28,0.35,0.41,0.19.89,0.58,1.28,0.81a14.715,14.715,0,0,1,2.09,1.17,3.422,3.422,0,0,1,1.16,1.62,1.7,1.7,0,0,1-.35,1.05,5.9,5.9,0,0,1-1.74,1.39c-0.52.32-1.35,0.48-1.86,0.81a9.645,9.645,0,0,0-1.16,1.05,21.114,21.114,0,0,1-1.63,1.51c-0.48.34-1.68,0.34-1.74,0.93a0.147,0.147,0,0,0,.08.13l-3.43.28c-0.41-.24-0.85-0.63-1.25-0.82l-0.06-.76-0.42-.68-0.62-.69-0.27-.41-0.55-1.24-0.89-1.03v-0.83l0.55-.55,0.61,0.14,0.55-.14,0.35-.27-0.21-.69-0.75-.41-0.97-.76-1.1-.35-0.55-.13-1.17-.42-0.82-.41-0.48-.2-0.35-.76-0.07-.34-0.69-.14-0.48.14-0.55.34-0.69.55-0.23.18c-0.24-.26-0.5-0.64-0.76-0.88a10.917,10.917,0,0,0-1.42-1.03,6.292,6.292,0,0,0-.91-0.52c-0.48-.21-1.2-0.31-1.68-0.52a10.071,10.071,0,0,1-1.25-.75l0.13-.19,0.42-.35-0.42-1.24-1.17-.55-0.89.07-0.42.2-1.71-1.87v-0.12l-0.21-.55-0.55-.55-0.76-.68-0.89-.83-0.96-.82-0.14.68,0.14,0.97,0.55,1.92-0.62,1.17-0.42.48-0.96-.2-0.69-.62-0.41-1.1-0.21-.9-0.06-.96,0.06-.69,0.21-.75-1.51-.62-0.76-.35-1.582-.41h-1.307l-0.757.21-0.137.89,0.481,0.41,0.275,0.76,0.138,0.89-0.619.62-0.9.07-1.238-.27-0.825.41-0.826.55-0.756.21h-0.895l-1.238.27-0.1.05,0.339-.38s-0.28.17-.389,0.26-0.233.2-.354,0.32l-0.6.3-0.894.69-0.757.69-0.756.82-0.254.63a1.716,1.716,0,0,0-.138.17,0.9,0.9,0,0,0-.09.39l-0.381.87-4.449,4.96s0.549-.23,1.071-0.49l-0.3.28-0.551,1.1,0.413,1.31-0.138.82-0.619,1.24-0.137,1.1,0.825,0.21,0.894,0.68,0.757,0.69h2.614l0.482,0.28,0.137,0.96-0.137.69,0.137,0.48,0.482,0.14,0.206-.35,0.344-.48,1.514-.34,2.958,0.07,0.137-.21-0.275-.41,0.275-.96,0.757-.28,0.413-.48,0.641-.34,0.194-.39,0.73-.19,1.605,0.05,1.265,0.05,0.681-.34,0.486-.15,0.681,0.24,0.728,0.44,0.39,0.39,0.65,0.69a9.358,9.358,0,0,1,.79.62,2.415,2.415,0,0,1,.26,1.03,2.476,2.476,0,0,1-.13,1.3,1.475,1.475,0,0,1-.9.64,1.361,1.361,0,0,1-.52-0.12,0.947,0.947,0,0,1-.39-0.13,1.712,1.712,0,0,1-.13-0.65c-0.06-.24-0.01-0.77-0.257-0.78-0.332,0-.306.72-0.388,1.04a4.2,4.2,0,0,0-.13.9,4.75,4.75,0,0,0,.025.52l-6.963.56-0.428-.37-1.265.1-0.973.49-28.837,2.33a2.6,2.6,0,0,1-.662-0.52,3.5,3.5,0,0,0-.259-0.52,0.974,0.974,0,0,0-.777-0.13,2.6,2.6,0,0,0-.518.65c-0.207.19-.556,0.35-0.777,0.52-0.11.08-.234,0.18-0.361,0.27l-53.906,4.37v-0.17l-0.2-.38-0.778-.3-0.1-1.07,0.875-.87,0.1-.59-0.681-.09-1.071.78-0.972.48-0.292.88-1.07.87-0.935.87-3.155.26a0.177,0.177,0,0,0-.02.04l-1.825-.1-0.486-.58h-0.778l-0.876.87-0.681,1.17-1.07,1.75-1.654,1.85-1.265,1.65,0.292,2.05,0.876,1.07v1.75l-1.07,1.55-1.071,1.27a7.141,7.141,0,0,1-2.334.58,1.421,1.421,0,0,1-.973-0.87l-1.168-1.17-0.875-.49-0.876.1-1.07,1.26,0.876,0.3,1.07,0.68,1.167,1.07-0.778.77-0.973.88-0.681.68-0.875,1.85-1.849,1.55-1.7.85h0a4.818,4.818,0,0,0-.641-0.28c-0.561-.14-1.354-0.07-1.923-0.18-0.477-.09-1.073-0.39-1.556-0.46a15.8,15.8,0,0,0-2.747.1,15.177,15.177,0,0,0-1.648.18c-0.307.06-.7,0.19-1.007,0.27-0.329.09-.775,0.18-1.1,0.28a8.6,8.6,0,0,0-1.19.46,3.014,3.014,0,0,0-1.507,1.23l-1.523-.89-0.779-1.07-1.945.2-1.946-.88-1.848-.58-0.584-.49v-1.94l0.681-1.56,0.973-1.46v-1.56l-1.459.59-1.557-.49-0.778-.97-1.46-1.07h-1.362l-1.653.68-1.849.87-2.724-.58-2.432-.58-1.654-.78-1.833.15-0.136-.08s0.021,0.03.053,0.08l-0.516.04-0.973.59-0.486.87-0.292,1.27,1.167,1.85,0.681,1.75-0.486.97-1.362.39-1.654,1.16-0.875.78-1.168.29-0.584.88-0.486,2.14-0.778.39-1.168.97-0.292,1.85-1.264,1.17-0.584,1.46,0.389,1.84,4.281,0.2,1.848,0.1,1.751-.69,1.459-.68,2.141-.58,2.14,0.19,0.876,0.78,1.07,1.07,1.167,2.14-0.257.3c-0.224-.06-0.454-0.14-0.454-0.14l-3.183,3.5-0.581.52-0.088.21-3.175,3.48a2.846,2.846,0,0,0-.872-0.01,6.285,6.285,0,0,0-1.019.77,3.655,3.655,0,0,1-.764.38,4.028,4.028,0,0,0-1.273.13,0.637,0.637,0,0,0-.127.38,1.072,1.072,0,0,0,0,.51c0.1,0.25.533,0.38,0.637,0.63a2.035,2.035,0,0,1,.094.86l-22.881,25.11s0.56-.29,1.011-0.54l0.828,1.75-0.389.87-1.557.39-1.751-.1-0.486.39-0.2,1.37-0.389.77-0.486.78h-1.557l-0.389.88v0.87l1.167,0.39,0.27,0.87-0.075.88-1.167.49-1.168.1-1.556.87-1.362,2.72-1.362,2.14-0.876.59-2.627.1-1.264.68-2.822,1.07-2.626.97-1.414.49,0.708,1.76-0.709-1.76h0l-0.006-.01h0l-0.723.3-1.264.48-0.779-.19-1.459,1.55-2.627,2.92-1.751,2.63,1.168,1.46,1.265,1.75,0.368,0.34-0.329.18s0.139-.07.348-0.17l0.78,0.72-0.309,2.82-0.08,3.11-1.46,1.75-0.972.88-0.1,1.07-0.194,2.33-0.973.68,0.389,0.97,0.681,0.78,1.557,0.78,0.321,0.8h0a5.046,5.046,0,0,0-.891.77c-0.518.4-1.228,0.92-1.783,1.27-0.591.38-1.449,0.76-2.036,1.15a15.451,15.451,0,0,0-2.037,1.52,7,7,0,0,0-.637.77,3.047,3.047,0,0,0-.509.76,2.332,2.332,0,0,0,0,1.27c0.008,0.03.022,0.05,0.032,0.08l-3.063,2.8-4.67,3.11-2.335.97-2.043,1.85-1.946,2.04-5.837,5.35-4.669,4.28-2.238,2.04-1.167,1.66,2.626,2.91,0.973,1.27,0.072,0.33-0.049.08,0.056-.04,0.5,2.35-1.751,1.46-1.265,1.36-1.362,2.05-1.654,2.52-1.189,2.06,0.216,3.39-0.389,1.95-0.973,1.65,2.238,1.46,3.113,2.24,3.016,3.11,0.681,1.55-0.1,1.85-1.168,1.85-1.265,2.14-1.167,1.07-0.292,2.43-0.583.68-0.681,1.36v1.56l0.778,0.97,0.1,1.66-0.486.97-1.071.49-1.653.58a10.662,10.662,0,0,0-1.751.29c-0.584.2-.876,0.29-0.876,0.29l-0.876.78-0.972.1-1.46-.1-0.681-.1-0.875.3-0.681.77-0.584.88-0.486.68-1.265.29-0.973,1.56-0.292.87,0.876,0.49,0.875,0.29,0.292,0.68-0.1,1.66-0.133.33-0.806.23a5.918,5.918,0,0,0,.719-0.01l-0.364.9-0.681,1.56-0.194,1.07,1.945-.1,1.946,0.39,1.946,0.49,0.875-1.46,0.779-.68,0.681-.1,1.264,0.39,2.141,0.1,1.751,0.39,1.556,0.19,1.07-.48,0.876-.78,1.362-.78,1.265-.58,1.264-.88,0.3-.34a0.647,0.647,0,0,0,.117-0.01l-0.076-.03,1.025-1.18,1.168-1.36,1.362-1.55,0.973-.98,1.556-.39,1.362-.68,1.654-.68,1.362-.68,0.778-1.17,0.681-.77-0.1-1.17-0.1-.88-0.876-.48h-0.584l-0.194.58-0.876.29H758.38l-0.875-.87-1.46-1.07-0.884-1.83-0.1-.11a4.018,4.018,0,0,1,.171-0.82c0.19-.47.634-1.02,0.813-1.51a5.741,5.741,0,0,1,.233-1.04,2.808,2.808,0,0,1,.464-0.35,5.258,5.258,0,0,0,.581-0.81c0.344-.54.732-1.3,1.046-1.86,0.452-.8,1.028-1.89,1.51-2.67a20.325,20.325,0,0,1,1.162-1.74,7.3,7.3,0,0,1,.813-0.93c0.35-.32.937-0.6,1.278-0.93,0.285-.28.493-0.73,0.813-1.05,0.526-.52,1.958-0.35,2.788-0.23a2.16,2.16,0,0,1,.726.29,3.653,3.653,0,0,1,1.016.87,4.35,4.35,0,0,1,.349.93,3.96,3.96,0,0,0,.348.93,4.005,4.005,0,0,0,1.394,1.04,2.519,2.519,0,0,0,.93.24,2.917,2.917,0,0,0,1.045-.24,2.965,2.965,0,0,0,.7-0.46,7.067,7.067,0,0,0,.581-0.58c0.184-.2.387-0.51,0.581-0.7a3.458,3.458,0,0,1,.581-0.46,3.132,3.132,0,0,1,.929-0.35c0.412-.08.988,0.1,1.394,0a9.874,9.874,0,0,0,1.975-1.05,12.6,12.6,0,0,0,1.278-.69,2.716,2.716,0,0,0,.813-0.7,3.233,3.233,0,0,0,.116-1.04,3.871,3.871,0,0,1,.116-0.93,2.573,2.573,0,0,1,.814-1.05,7.053,7.053,0,0,1,.813-0.23c0.156-.08.305-0.28,0.464-0.35a2.691,2.691,0,0,1,1.278-.23c0.264,0.03.549,0.32,0.813,0.35,0.32,0.03.795-.44,1.046-0.24a3.875,3.875,0,0,1,0,.47,2.132,2.132,0,0,0,1.394.23,8.653,8.653,0,0,0,2.439-.12c0.227-.05.475-0.27,0.7-0.34a12.676,12.676,0,0,1,1.511-.24c0.7-.12,1.636-0.28,2.323-0.46a5.807,5.807,0,0,1,1.045-.35,6.748,6.748,0,0,1,1.162.23c0.278,0.05.649,0.1,0.929,0.12a28.829,28.829,0,0,0,3.718,0c0.422-.04.971-0.2,1.394-0.23a8.7,8.7,0,0,1,1.975,0,6.043,6.043,0,0,1,.7.23,7.691,7.691,0,0,0,1.161.23c0.451,0.05,1.059-.04,1.511,0a8.164,8.164,0,0,1,2.091.35c0.584,0.23,1.141.98,1.742,1.16a8.461,8.461,0,0,0,1.51,0c0.122,0.01.257,0.03,0.4,0.05l0.38,2.47-0.681,1.17-1.07,1.07-1.849.58,0.389,0.97,1.168,1.46,0.778,1.65,0.584,0.88,0.778,0.19,1.654,1.17,0.681,0.97,0.681,0.88,1.362,0.39,0.875,1.26v2.34l-0.389,2.14-1.264,2.14-1.946,2.62-1.362,2.73,0.292,2.43,0.194,2.62-1.653.98-1.362,1.94-0.39,1.07,0.973,0.78,1.07,1.26,2.627-.09,1.362-.2,1.362-.19,1.946,0.78,2.335,0.58,0.778,1.36-0.681,1.17,0.292,2.82-0.2,1.46-0.973.78-0.292,2.14,0.1,1.36,1.167-.2,0.681-.78,0.681-1.36,0.292-.68,1.654-.1,0.875,0.3,0.876,1.75,0.876,0.29,0.673,0.98c-0.321.54-.746,1.2-0.746,1.2l0.838-1.06,0.5,0.73,1.654,2.72,2.14,2.63,1.557,2.82,0.486,2.04-0.681,1.85,1.557,0.39,1.556,0.39,0.195,2.23v2.14l1.265,1.36s1.556,2.24,2.043,2.83a10.963,10.963,0,0,1,1.07,1.84l1.07,1.75,0.681,1.95,0.389,0.87,0.778-.09,0.973-1.85,1.168-1.27,2.237-.19,1.946,1.56,1.07,1.36,0.876,0.19v-2.04l0.1-1.26,1.167-1.07H858l1.751-.2,1.064-.15,1.376-.28,0.825-.83,1.1-1.65,0.55-1.23,2.074,0.29,2.329,0.53,1.845-.1,2.007,0.79,1.789,0.82,0.825-.68,0.826-.42,1.238-.27,0.688-1.38,1.788-.82,2.2-1.24,0.963-.41-0.275-.42,0.688-2.06,0.963-.14,0.963-.68,0.963-.42,1.651-.27h1.238l1.238-.83-0.275-1.1,0.826-1.65,0.731-.18,0.876-.39,1.459,0.68,1.557,1.75,1.751,0.29,2.821-.48,2.335,0.29,1.362,0.87,0.681,0.88,1.362,0.97,1.557,0.97,0.583,2.43,0.779,0.39,0.486-.19,2.238-1.07,1.459-.1,1.946,0.59,2.14,2.04,1.848-1.27,2.043,0.39,1.751,0.1,1.265-.68v-0.49l-0.292-3.5,0.584-2.14,1.848-2.04,1.946-1.27,7.977-.48,1.265-1.17,1.167-2.43,0.973-2.14,1.362-1.17-0.875-1.65,0.083-3.17,0.048,0.03-0.047-.05,0.013-.51,0.584-.97,1.751-1.65,2.627-1.36,2.043-.2h1.751l0.292-1.36,0.972-1.65,1.46-1.27,1.362-.39,0.1-.78-0.389-2.14,1.459-1.36-0.292-1.85-0.6-.6,0.126-.09-0.631-.5-0.645-2.21-0.194-1.75-1.46-2.04-1.848-1.56-2.53-1.26,0.2-1.66,1.362-1.26,1.64-2.52h-0.01l1.58-1.57,1.46-.58,1.751,0.19,1.751,0.69,1.848-.49,2.141-2.72,0.875-1.46v-0.88l0.876-.68,1.751-.58,1.07-1.75,1.557-.98,3.5-1.46,0.778-1.55-0.486-1.36-1.557-.39-1.167-1.07,0.486-1.95,0.876-1.16,2.043-.49,2.237-1.56,4.086-1.94,0.839-.46h0l1.982-.9,2.335-.39,0.731,0.25,2.295,2.45,0.476,0.9,0.2,1.26-0.2,2.53v5.74l0.292,3.3-0.389,2.53-1.264,2.43-1.363,1.66-0.389,2.24,1.654,2.23,0.584,1.75-0.195.98,0.39,1.36,2.14,1.85,2.724,1.55,2.724,1.46,1.556,2.33,0.7,1.04c-0.513.08-1.256,0.21-1.256,0.21l1.561,0.24,1.625,2.41,1.557,1.45,0.194,1.76,0.694,0.73c-0.151.11-.285,0.21-0.285,0.21l0.379-.11,1.15,1.21,0.9,1.86,1.1,0.14,1.37,0.27,0.97,0.83,1.3,0.75,1.79,0.21,1.03,0.76,0.78,0.37a6.393,6.393,0,0,0-.17.85c-0.1.43-.23,1.02-0.34,1.45a4.549,4.549,0,0,0-.24.82,2.894,2.894,0,0,0,.09.77,0.933,0.933,0,0,0,.05.14h2.37s0.08-.44.14-0.62a10.068,10.068,0,0,1,.53-1.21,8.438,8.438,0,0,1,.58-0.96,7.185,7.185,0,0,1,.82-0.92,4.767,4.767,0,0,1,.63-0.48,1.859,1.859,0,0,1,.43-0.2,2.135,2.135,0,0,0,.58-0.09,0.348,0.348,0,0,0,.11-0.13l1.42,0.76,1.37,1.17,0.76-.42,1.03-.89,0.48-.55,0.69,0.2,2.34,2.41,1.65,2,0.96,1.37,0.14,1.45-0.89.96-0.76.55-0.36.09-0.1.73-0.24,1.65-0.73.64-1.85,1.16-1.17,1.03-0.44,1.21,0.59,1.27h0.63l1.27,0.19,1.7,0.63,1.12,1.22,1.41,1.21,1.12,1.22,0.99,0.23,0.01,0.01a3,3,0,0,0,.22.39,2.917,2.917,0,0,1,.29.48,3.962,3.962,0,0,1,0,.77c0.02,0.51.1,1.18,0.14,1.69,0.03,0.36.11,0.84,0.1,1.2a5.569,5.569,0,0,0-.15.97,2.309,2.309,0,0,0,.53.92c0.1,0.1.28,0.19,0.39,0.29a0.689,0.689,0,0,1,.24.24,6.807,6.807,0,0,0,0,1.01,0.61,0.61,0,0,0,.53.19,1.934,1.934,0,0,0,.82-0.58c0.12-.1.24-0.23,0.37-0.36l0.57,0.72v0.97l0.78,2.04,1.36,2.24-0.19,1.27-1.26,1.16-1.17,1.85v0.97l0.68,0.1,1.17-1.17,0.66,0.05-0.01.03a0.124,0.124,0,0,0,.02-0.03l0.88,0.05,1.17,1.17,1.36,0.29,1.46-.1,0.88,0.39,0.19,1.46,1.27,0.39,1.75-.88,0.39-2.33,0.29-1.36,0.78-1.65,0.48-1.95,1.46-.97,0.98-1.07,0.38-1.36-0.38-.3s-1.07-1.36-1.46-1.84a7.619,7.619,0,0,0-1.56-1.17h-2.04l-0.98-.78-0.29-1.07,0.2-1.46-0.68-1.17-0.78-.97-0.59-1.65-0.19-.78,0.68-.87,0.88-.88,1.07-.29,0.02-1v-0.02a2.916,2.916,0,0,0,.65-0.21,5.109,5.109,0,0,0,.87-0.68c0.23-.2.48-0.53,0.72-0.72a2.263,2.263,0,0,1,.58-0.34,4.96,4.96,0,0,1,1.16-.09c0.59-.03,1.38-0.02,1.98,0,0.28,0,.67.06,0.96,0.05a5.656,5.656,0,0,0,1.59-.29,4.582,4.582,0,0,0,.82-0.63,10.18,10.18,0,0,0,.87-0.73c0.21-.2.44-0.5,0.63-0.72a0.93,0.93,0,0,0,.24-0.29,0.83,0.83,0,0,0-.19-0.58,1,1,0,0,0-.63-0.33,1.441,1.441,0,0,0-.68.33c-0.12.09-.26,0.25-0.38,0.34a7.064,7.064,0,0,1-.73.48,5.009,5.009,0,0,1-.72.39,4.643,4.643,0,0,1-.82.19c-0.3.06-.71,0.11-1.01,0.15a10.59,10.59,0,0,1-1.11.09c-0.38,0-.88-0.15-1.26-0.14a4.4,4.4,0,0,0-1.3.19,5.17,5.17,0,0,0-.68.39c-0.24.13-.57,0.29-0.82,0.43-0.07.04-.16,0.11-0.24,0.15-0.18.09-.42,0.18-0.62,0.28v-0.1l-0.49-.58-0.58-1.17,0.1-1.94,0.77-2.04,1.07-.69,1.85-.68,1.95-.68,0.87-.58,0.68-1.07,0.39-1.46-0.09-1.56-0.78-1.65-0.29-1.17,0.68-1.65,2.82-1.17,1.94-1.85,1.17-1.16,0.88-.39,0.97-1.65,0.97-.49,2.34-.39,0.1-1.26,0.29-1.56,1.07-1.85,0.68-.58,0.87-1.36,0.2-1.07,1.46-1.17,0.97-.49,0.1-1.07,0.19-3.3,1.85-2.24,1.85-3.79,1.17-2.34-0.2-3.01-0.87-1.56-0.3-2.72v-4.19l-3.4-3.01-0.1-2.24,1.07-.97,1.56-.97,0.49-1.07-0.3-2.43-0.09-1.66,1.46-1.55,2.16-.83,2.31-.44,2.82-.39,1.66,0.59,0.09,1.36v1.26l1.75,1.46,0.78,0.88,1.27,0.29,0.19-.49,0.78-1.17,0.19-1.45,1.27-1.46,0.78-.68,2.23,0.19h0.01l0.87,1.17,0.1,1.65-0.49,2.63-0.78,2.04-0.19,1.56v2.14l0.49,1.65,1.26,2.63-0.19,2.23-0.39,1.36,1.55,0.88,1.65,1.07,1.27,0.87,0.78,2.24,0.22,0.71-0.09.02a0.413,0.413,0,0,1,.09-0.01l0.17,0.55,1.26,1.75,1.46,1.46,2.82,1.36,1.56,0.87,2.24,0.1,1.17,0.39,1.45-.2,2.14-.58,2.05-.78,1.85,0.39,0.68,0.29,0.87-.68,0.49-1.36-0.1-1.46,0.2-2.72,0.68-1.07,1.55-.96,1.56,0.96,2.14,1.07,1.07-.2,1.07-.68,1.17-.77,0.78-1.46,1.85-.59h2.91l1.17-.48,0.88-.49,1.36-.68,1.56-.39,1.65,0.39,1.26-.68,1.17-.57,0.97,0.86,0.88,1.26,0.88,1.27,1.75,1.65,0.19,2.14-0.68.29,0.1,1.95,0.68,0.87v1.46l-0.2,1.95,0.78,0.49,2.53,1.07,2.14,1.45,0.49,1.75-0.29,2.44-0.1,1.75,0.97,0.68,0.59,0.68,0.48-.58,0.78-1.07,1.56-.1,1.75,0.48,1.55,0.1,0.88-.19,0.52-.67c0.15,0.14.27,0.26,0.27,0.26l-0.17-.38,1.42-1.84,1.66-1.75-0.98-1.75-0.87-1.56-1.36-1.75-1.17-.97-1.36-1.85-0.98-2.04-0.29-1.56,0.59-1.84,0.48-1.85,0.39-1.64,0.07-.27,0.82-.76,1.31-.55,1.79-1.37,0.28-.62-0.35-1.03-1.24-1.38-0.48-1.03-0.34-.9s-1.1.42-1.58,0.62a7.355,7.355,0,0,1-1.31.35l-1.86.2-1.03.14-1.31-.62-0.88-.22-0.84-1.57-1.03-1.51,0.14-1.99,0.34-1.1-0.34-1.1-0.35-2.69,0.83-1.58,0.41-.76,0.14-1.71v-2.14l0.28-1.23,2.13-2.21,0.41-1.44,1.03-.89,1.38-.62-0.35-2.2,0.69-1.52,1.52-.27,1.23,0.27,0.49-.27,1.78-.55,0.76-.76,1.17-.34,0.41-.97,1.52-.41,1.03,0.07,1.17,0.48h0.69l0.41-.75v-0.49l0.41-.89,1.24,0.07,0.21,0.62,0.47,1.3,0.97,1.24,0.21,0.76,0.07,1.58-1.11.9-0.13,1.23,0.82,0.76,0.76,0.27,1.93,0.14,1.3,0.76,0.62,1.37,0.55,1.04,0.28,0.89,3.44-.07,1.3-.48,2.82,0.14,1.31,0.41,2.41-.21,1.65,0.42,0.89,0.55,1.24,0.13,1.24-1.72,0.48-1.71,0.76-1.59,0.41-2.4-0.07-3.17-1.51-1.65-0.67-.82a0.3,0.3,0,0,1,.03-0.04l-0.05.01-0.2-.25-2.14-.82-2.2.55-1.31.2-0.81-.56-0.42-1.43-0.69-2.61-0.55-.76-0.21-2.89,0.62-.76,3.03-2.89-0.35-1.03-0.82-.62-0.41-1.03,0.27-.75,1.17-1.04,1.79-1.1,1.37-.75,0.07-.69-0.89-1.44-0.76-1.1-0.27-1.59,0.2-1.03,0.83-.75,1.03-.69,0.76-1.03-0.07-1.17,0.48-1.38,0.83-1.44,0.41-1.79,0.14-1.1-0.28-.9,0.21-1.51-0.52-1.14a5.915,5.915,0,0,0,.13-1.04A14.057,14.057,0,0,1,1190.67,1713.78ZM987.922,1610.09a3.711,3.711,0,0,0-.539.65,4.846,4.846,0,0,1,.518-0.65,0.023,0.023,0,0,0,.022-0.01v0.01Zm18.178-17.2,0.21-.89-0.14-.76,0.48-.69,0.41-.41,0.9-.14,0.96-.07,1.31,0.14,0.48,0.34,0.55,0.69,0.69,0.14,0.76-.14,0.13-.96-0.62-.89-0.89-.76-0.21-1.03,0.42-1.03,0.42-.62,8.01,8.72-0.18.49-0.42.83a7.969,7.969,0,0,1-1.43-.39,6.728,6.728,0,0,1-1.16-.52,7.789,7.789,0,0,0-.78-0.64,3.919,3.919,0,0,0-.91-0.13,9.264,9.264,0,0,1-.9-0.26c-0.28-.1-0.63-0.29-0.91-0.39a1.984,1.984,0,0,0-.39-0.13,7.933,7.933,0,0,0-1.68.13,3.635,3.635,0,0,1-.91.13,7.449,7.449,0,0,1-.65-0.39,1.656,1.656,0,0,0-.9-0.13,5.09,5.09,0,0,0-.91.78c-0.18.11-.46,0.16-0.65,0.26a1.533,1.533,0,0,1-.64.38,0.133,0.133,0,0,1-.08-0.03c-0.02-.02-0.05-0.07-0.1-0.12a0.436,0.436,0,0,0-.08-0.1c-0.03-.03-0.06-0.05-0.08-0.07l-0.02-.02-0.23-.56Zm-170.254,59.46a1.722,1.722,0,0,1,.536-0.15l-0.014.08c-0.178.09-.931,0.56-1.158,0.7C835.437,1652.84,835.606,1652.47,835.846,1652.35ZM975.109,1764.9l0.025,0.02,1.307,5.45Zm65.221-179.04a0.09,0.09,0,0,1,.05.01C1040.39,1585.88,1040.29,1585.81,1040.33,1585.86Z" transform="translate(-729 -1575)"/>
</svg>
