<?xml version="1.0" encoding="utf-8"?>
<!-- Generator: Adobe Illustrator 18.0.0, SVG Export Plug-In . SVG Version: 6.00 Build 0)  -->
<!DOCTYPE svg PUBLIC "-//W3C//DTD SVG 1.1//EN" "http://www.w3.org/Graphics/SVG/1.1/DTD/svg11.dtd">
<svg version="1.1" id="Layer_1" xmlns="http://www.w3.org/2000/svg" xmlns:xlink="http://www.w3.org/1999/xlink" x="0px" y="0px"
	 viewBox="0 46.9 500 406.2" enable-background="new 0 46.9 500 406.2" xml:space="preserve">
<path fill="#3F3F3F" d="M500,95.3c-18.8,7.8-37.5,14.1-59.4,15.6c21.9-12.5,37.5-32.8,45.3-56.2c-20.3,12.5-42.2,20.3-65.6,25
	c-18.8-20.3-45.3-32.8-73.4-32.8c-56.2,0-103.1,45.3-103.1,103.1c0,7.8,1.6,15.6,3.1,23.4c-85.9-4.7-160.9-45.3-212.5-107.8
	C25,81.2,20.3,98.4,20.3,117.2c0,35.9,18.7,67.2,45.3,85.9c-17.2,0-32.8-4.7-46.9-12.5v1.6c0,50,35.9,90.6,82.8,100
	c-9.4,1.6-17.2,3.1-26.6,3.1c-6.2,0-12.5,0-18.7-1.6c12.5,40.6,51.6,70.3,95.3,71.9c-34.4,28.1-79.7,43.7-128.1,43.7
	c-7.8,0-17.2,0-25-1.6c46.9,28.1,101.6,45.3,159.4,45.3c189.1,0,292.2-156.2,292.2-292.2c0-4.7,0-9.4,0-12.5
	C468.8,132.8,485.9,115.6,500,95.3z"/>
</svg>
